<?xml version="1.0" encoding="utf-8"?>
<!-- Generator: Adobe Illustrator 27.5.0, SVG Export Plug-In . SVG Version: 6.00 Build 0)  -->
<svg version="1.1" xmlns="http://www.w3.org/2000/svg" xmlns:xlink="http://www.w3.org/1999/xlink" x="0px" y="0px"
	 viewBox="0 0 500 500" style="enable-background:new 0 0 500 500;" xml:space="preserve">
<g id="Background_Complete">
	<g>
		<rect y="382.398" style="fill:#EBEBEB;" width="500" height="0.25"/>
		<rect x="416.779" y="398.494" style="fill:#EBEBEB;" width="33.122" height="0.25"/>
		<rect x="322.527" y="401.208" style="fill:#EBEBEB;" width="8.693" height="0.25"/>
		<rect x="396.586" y="389.208" style="fill:#EBEBEB;" width="19.192" height="0.25"/>
		<rect x="52.459" y="390.888" style="fill:#EBEBEB;" width="43.193" height="0.25"/>
		<rect x="104.556" y="390.888" style="fill:#EBEBEB;" width="6.333" height="0.25"/>
		<rect x="131.471" y="395.111" style="fill:#EBEBEB;" width="93.676" height="0.25"/>
		<path style="fill:#EBEBEB;" d="M237.014,337.8H43.915c-3.147,0-5.708-2.561-5.708-5.708V60.66c0-3.147,2.561-5.708,5.708-5.708
			h193.099c3.146,0,5.707,2.561,5.707,5.708v271.432C242.721,335.239,240.16,337.8,237.014,337.8z M43.915,55.203
			c-3.01,0-5.458,2.448-5.458,5.458v271.432c0,3.01,2.448,5.458,5.458,5.458h193.099c3.009,0,5.457-2.448,5.457-5.458V60.66
			c0-3.009-2.448-5.458-5.457-5.458H43.915z"/>
		<path style="fill:#EBEBEB;" d="M453.31,337.8H260.212c-3.147,0-5.707-2.561-5.707-5.708V60.66c0-3.147,2.561-5.708,5.707-5.708
			H453.31c3.148,0,5.708,2.561,5.708,5.708v271.432C459.019,335.239,456.458,337.8,453.31,337.8z M260.212,55.203
			c-3.009,0-5.457,2.448-5.457,5.458v271.432c0,3.01,2.448,5.458,5.457,5.458H453.31c3.01,0,5.458-2.448,5.458-5.458V60.66
			c0-3.009-2.448-5.458-5.458-5.458H260.212z"/>
	</g>
	<g>
		<g>
			<g>
				<polygon style="fill:#F0F0F0;" points="388.152,381.784 428.663,381.784 420.477,235.308 396.339,235.308 				"/>
				<rect x="394.643" y="231.761" style="fill:#EBEBEB;" width="27.528" height="7.564"/>
			</g>
			<g>
				<polygon style="fill:#F0F0F0;" points="339.033,381.784 379.544,381.784 371.358,235.308 347.22,235.308 				"/>
				<rect x="345.525" y="231.761" style="fill:#EBEBEB;" width="27.528" height="7.564"/>
			</g>
			<rect x="348.877" y="358.741" style="fill:#E6E6E6;" width="44.044" height="23.043"/>
			<rect x="300.802" y="358.741" style="fill:#E0E0E0;" width="44.044" height="23.043"/>
			<rect x="398.391" y="358.741" style="fill:#E6E6E6;" width="44.044" height="23.043"/>
		</g>
		<g>
			<polygon style="fill:#F0F0F0;" points="180.808,314.774 180.808,304.465 155.341,314.774 155.341,304.465 129.875,314.774 
				129.875,304.465 104.408,314.774 104.408,304.465 73.683,316.902 73.373,316.902 73.373,244.912 57.565,244.912 57.565,381.784 
				63.53,381.784 73.373,381.784 206.275,381.784 206.275,324.411 206.275,316.902 206.275,304.465 			"/>
			<rect x="150.122" y="344.598" style="fill:#E6E6E6;" width="77.322" height="37.186"/>
			<path style="fill:#E6E6E6;" d="M139.124,343.837h-12.81c-1.828,0-3.31,1.527-3.31,3.412v26.036c0,1.602,1.075,2.936,2.519,3.303
				v5.196h2.112v-5.087h4.027v5.087h2.113v-5.087h4.027v5.087h2.113v-5.196c1.444-0.367,2.519-1.701,2.519-3.303v-26.036
				C142.434,345.364,140.952,343.837,139.124,343.837z"/>
			<path style="fill:#E6E6E6;" d="M115.478,343.837h-12.81c-1.828,0-3.31,1.527-3.31,3.412v26.036c0,1.602,1.075,2.936,2.519,3.303
				v5.196h2.113v-5.087h4.027v5.087h2.113v-5.087h4.027v5.087h2.113v-5.196c1.444-0.367,2.519-1.701,2.519-3.303v-26.036
				C118.788,345.364,117.306,343.837,115.478,343.837z"/>
			<path style="fill:#E6E6E6;" d="M91.832,343.837h-12.81c-1.828,0-3.31,1.527-3.31,3.412v26.036c0,1.602,1.075,2.936,2.519,3.303
				v5.196h2.113v-5.087h4.027v5.087h2.113v-5.087h4.027v5.087h2.113v-5.196c1.444-0.367,2.519-1.701,2.519-3.303v-26.036
				C95.143,345.364,93.66,343.837,91.832,343.837z"/>
		</g>
		<g>
			<path style="fill:#E0E0E0;" d="M77.109,209.711c-0.192-3.806,7.868-5.388,9.404-2.224c1.535,3.165-1.535,5.539-1.535,5.539
				s4.606,1.9,0.768,4.807c-3.838,2.907-5.374,0-5.374,0s-4.414,4.094-5.566,2.511c-1.151-1.582,1.152-2.814,1.152-2.814
				s-3.71,0.243-3.199-3.515C73.271,210.257,77.109,209.711,77.109,209.711z"/>
			<path style="fill:#E0E0E0;" d="M65.441,227.441c-0.096-1.903,3.934-2.694,4.702-1.112c0.768,1.582-0.768,2.769-0.768,2.769
				s2.303,0.95,0.384,2.404c-1.919,1.454-2.687,0-2.687,0s-2.207,2.047-2.783,1.256c-0.576-0.791,0.576-1.407,0.576-1.407
				s-1.855,0.121-1.599-1.758C63.522,227.714,65.441,227.441,65.441,227.441z"/>
			<path style="fill:#E0E0E0;" d="M63.879,187.809c-0.276-5.463,11.295-7.735,13.499-3.192c2.204,4.543-2.204,7.95-2.204,7.95
				s6.612,2.727,1.102,6.9c-5.51,4.173-7.714,0-7.714,0s-6.336,5.876-7.989,3.605c-1.653-2.271,1.653-4.04,1.653-4.04
				s-5.326,0.349-4.591-5.046S63.879,187.809,63.879,187.809z"/>
		</g>
		<g>
			<path style="fill:#E0E0E0;" d="M363.979,198.89c-0.192-3.806,7.868-5.388,9.404-2.224c1.535,3.165-1.535,5.539-1.535,5.539
				s4.606,1.9,0.768,4.807c-3.838,2.907-5.374,0-5.374,0s-4.414,4.094-5.566,2.511c-1.151-1.582,1.152-2.814,1.152-2.814
				s-3.71,0.243-3.199-3.515C360.141,199.436,363.979,198.89,363.979,198.89z"/>
			<path style="fill:#E0E0E0;" d="M352.311,216.621c-0.096-1.903,3.934-2.694,4.702-1.112c0.768,1.582-0.768,2.769-0.768,2.769
				s2.303,0.95,0.384,2.404c-1.919,1.453-2.687,0-2.687,0s-2.207,2.047-2.783,1.256c-0.576-0.791,0.576-1.407,0.576-1.407
				s-1.855,0.122-1.599-1.758C350.392,216.893,352.311,216.621,352.311,216.621z"/>
			<path style="fill:#E0E0E0;" d="M350.749,176.988c-0.275-5.463,11.295-7.735,13.499-3.192c2.204,4.543-2.204,7.95-2.204,7.95
				s6.612,2.728,1.102,6.9c-5.51,4.173-7.714,0-7.714,0s-6.336,5.877-7.989,3.605c-1.653-2.272,1.653-4.04,1.653-4.04
				s-5.326,0.349-4.591-5.046C345.239,177.771,350.749,176.988,350.749,176.988z"/>
		</g>
		<g>
			<path style="fill:#E0E0E0;" d="M417.462,201.868c-0.192-3.806,7.868-5.388,9.404-2.224c1.535,3.165-1.535,5.539-1.535,5.539
				s4.606,1.9,0.768,4.807c-3.838,2.907-5.374,0-5.374,0s-4.414,4.094-5.566,2.511c-1.151-1.582,1.151-2.814,1.151-2.814
				s-3.71,0.243-3.199-3.515C413.624,202.413,417.462,201.868,417.462,201.868z"/>
			<path style="fill:#E0E0E0;" d="M405.794,219.598c-0.096-1.903,3.934-2.694,4.702-1.112c0.768,1.582-0.768,2.769-0.768,2.769
				s2.303,0.95,0.384,2.404c-1.919,1.454-2.687,0-2.687,0s-2.207,2.047-2.783,1.256c-0.576-0.791,0.576-1.407,0.576-1.407
				s-1.855,0.121-1.599-1.758C403.875,219.871,405.794,219.598,405.794,219.598z"/>
			<path style="fill:#E0E0E0;" d="M404.232,179.965c-0.276-5.463,11.295-7.735,13.499-3.192c2.204,4.543-2.204,7.95-2.204,7.95
				s6.612,2.727,1.102,6.9c-5.51,4.173-7.714,0-7.714,0s-6.336,5.876-7.989,3.605c-1.653-2.271,1.653-4.04,1.653-4.04
				s-5.326,0.349-4.591-5.046C398.722,180.749,404.232,179.965,404.232,179.965z"/>
		</g>
		<g>
			<polygon style="fill:#E6E6E6;" points="339.9,331.244 339.9,307.164 333.771,307.164 333.771,223.436 324.911,223.436 
				324.911,212.633 305.994,203.54 305.994,192.647 303.374,192.647 303.374,223.436 299.705,223.436 299.705,307.164 
				296.036,307.164 296.036,263.139 286.078,263.139 286.078,240.452 283.3,240.452 283.3,307.164 275.736,307.164 275.736,281.775 
				270.758,281.775 270.758,275.293 259.227,275.293 259.227,253.146 252.913,253.146 252.913,237.481 245.152,237.481 
				245.152,214.659 242.382,214.659 242.382,237.481 234.62,237.481 234.62,253.146 228.306,253.146 228.306,275.293 
				216.775,275.293 216.775,281.775 211.796,281.775 211.796,307.164 205.891,307.164 205.891,275.293 194.361,275.293 
				194.361,206.691 190.692,206.691 190.692,199.129 166.06,199.129 166.06,206.691 160.819,206.691 160.819,256.387 
				139.855,256.387 139.855,261.249 131.993,261.249 131.993,265.03 139.855,265.03 139.855,284.476 127.092,284.476 
				127.092,284.603 106.859,284.603 106.859,381.784 344.093,381.784 344.093,331.244 			"/>
			<g>
				<rect x="111.406" y="289.396" style="fill:#F0F0F0;" width="2.97" height="3.061"/>
				<rect x="111.406" y="294.527" style="fill:#F0F0F0;" width="2.97" height="3.061"/>
				<rect x="164.515" y="209.36" style="fill:#F0F0F0;" width="2.97" height="3.061"/>
				<rect x="164.515" y="214.492" style="fill:#F0F0F0;" width="2.97" height="3.061"/>
				<rect x="164.515" y="219.623" style="fill:#F0F0F0;" width="2.97" height="3.061"/>
				<rect x="164.515" y="224.755" style="fill:#F0F0F0;" width="2.97" height="3.061"/>
				<rect x="164.515" y="229.887" style="fill:#F0F0F0;" width="2.97" height="3.061"/>
				<rect x="164.515" y="235.018" style="fill:#F0F0F0;" width="2.97" height="3.061"/>
				<rect x="164.515" y="240.15" style="fill:#F0F0F0;" width="2.97" height="3.061"/>
				<rect x="164.515" y="245.282" style="fill:#F0F0F0;" width="2.97" height="3.061"/>
				<rect x="164.515" y="260.677" style="fill:#F0F0F0;" width="2.97" height="3.061"/>
				<rect x="164.515" y="265.808" style="fill:#F0F0F0;" width="2.97" height="3.061"/>
				<rect x="169.232" y="209.36" style="fill:#F0F0F0;" width="2.97" height="3.061"/>
				<rect x="169.232" y="214.492" style="fill:#F0F0F0;" width="2.97" height="3.061"/>
				<rect x="169.232" y="219.623" style="fill:#F0F0F0;" width="2.97" height="3.061"/>
				<rect x="169.232" y="224.755" style="fill:#F0F0F0;" width="2.97" height="3.061"/>
				<rect x="169.232" y="229.887" style="fill:#F0F0F0;" width="2.97" height="3.061"/>
				<rect x="169.232" y="235.018" style="fill:#F0F0F0;" width="2.97" height="3.061"/>
				<rect x="169.232" y="240.15" style="fill:#F0F0F0;" width="2.97" height="3.061"/>
				<rect x="169.232" y="245.282" style="fill:#F0F0F0;" width="2.97" height="3.061"/>
				<rect x="169.232" y="265.808" style="fill:#F0F0F0;" width="2.97" height="3.061"/>
				<rect x="173.949" y="209.36" style="fill:#F0F0F0;" width="2.97" height="3.061"/>
				<rect x="173.949" y="214.492" style="fill:#F0F0F0;" width="2.97" height="3.061"/>
				<rect x="173.949" y="219.623" style="fill:#F0F0F0;" width="2.97" height="3.061"/>
				<rect x="173.949" y="224.755" style="fill:#F0F0F0;" width="2.97" height="3.061"/>
				<rect x="173.949" y="229.887" style="fill:#F0F0F0;" width="2.97" height="3.061"/>
				<rect x="173.949" y="235.018" style="fill:#F0F0F0;" width="2.97" height="3.061"/>
				<rect x="173.949" y="240.15" style="fill:#F0F0F0;" width="2.97" height="3.061"/>
				<rect x="173.949" y="245.282" style="fill:#F0F0F0;" width="2.97" height="3.061"/>
				<rect x="178.665" y="209.36" style="fill:#F0F0F0;" width="2.97" height="3.061"/>
				<rect x="178.665" y="214.492" style="fill:#F0F0F0;" width="2.97" height="3.061"/>
				<rect x="178.665" y="219.623" style="fill:#F0F0F0;" width="2.97" height="3.061"/>
				<rect x="178.665" y="224.755" style="fill:#F0F0F0;" width="2.97" height="3.061"/>
				<rect x="178.665" y="229.887" style="fill:#F0F0F0;" width="2.97" height="3.061"/>
				<rect x="178.665" y="235.018" style="fill:#F0F0F0;" width="2.97" height="3.061"/>
				<rect x="178.665" y="245.282" style="fill:#F0F0F0;" width="2.97" height="3.061"/>
				<rect x="178.665" y="250.413" style="fill:#F0F0F0;" width="2.97" height="3.061"/>
				<rect x="178.665" y="265.808" style="fill:#F0F0F0;" width="2.97" height="3.061"/>
				<rect x="178.665" y="270.94" style="fill:#F0F0F0;" width="2.97" height="3.061"/>
				<rect x="178.665" y="276.072" style="fill:#F0F0F0;" width="2.97" height="3.061"/>
				<rect x="178.665" y="281.203" style="fill:#F0F0F0;" width="2.97" height="3.061"/>
				<rect x="178.665" y="286.335" style="fill:#F0F0F0;" width="2.97" height="3.061"/>
				<rect x="178.665" y="291.466" style="fill:#F0F0F0;" width="2.97" height="3.061"/>
				<rect x="178.665" y="296.598" style="fill:#F0F0F0;" width="2.97" height="3.061"/>
				<rect x="183.382" y="209.36" style="fill:#F0F0F0;" width="2.97" height="3.061"/>
				<rect x="183.382" y="214.492" style="fill:#F0F0F0;" width="2.97" height="3.061"/>
				<rect x="183.382" y="219.623" style="fill:#F0F0F0;" width="2.97" height="3.061"/>
				<rect x="183.382" y="224.755" style="fill:#F0F0F0;" width="2.97" height="3.061"/>
				<rect x="183.382" y="229.887" style="fill:#F0F0F0;" width="2.97" height="3.061"/>
				<rect x="183.382" y="235.018" style="fill:#F0F0F0;" width="2.97" height="3.061"/>
				<rect x="183.382" y="250.413" style="fill:#F0F0F0;" width="2.97" height="3.061"/>
				<rect x="183.382" y="255.545" style="fill:#F0F0F0;" width="2.97" height="3.061"/>
				<rect x="183.382" y="260.677" style="fill:#F0F0F0;" width="2.97" height="3.061"/>
				<rect x="183.382" y="265.808" style="fill:#F0F0F0;" width="2.97" height="3.061"/>
				<rect x="183.382" y="270.94" style="fill:#F0F0F0;" width="2.97" height="3.061"/>
				<rect x="183.382" y="276.072" style="fill:#F0F0F0;" width="2.97" height="3.061"/>
				<rect x="183.382" y="281.203" style="fill:#F0F0F0;" width="2.97" height="3.061"/>
				<rect x="183.382" y="286.335" style="fill:#F0F0F0;" width="2.97" height="3.061"/>
				<rect x="183.382" y="291.466" style="fill:#F0F0F0;" width="2.97" height="3.061"/>
				<rect x="183.382" y="296.598" style="fill:#F0F0F0;" width="2.97" height="3.061"/>
				<rect x="183.382" y="301.73" style="fill:#F0F0F0;" width="2.97" height="3.061"/>
				<rect x="183.382" y="311.993" style="fill:#F0F0F0;" width="2.97" height="3.061"/>
				<rect x="188.099" y="209.36" style="fill:#F0F0F0;" width="2.97" height="3.061"/>
				<rect x="188.099" y="214.492" style="fill:#F0F0F0;" width="2.97" height="3.061"/>
				<rect x="188.099" y="219.623" style="fill:#F0F0F0;" width="2.97" height="3.061"/>
				<rect x="188.099" y="224.755" style="fill:#F0F0F0;" width="2.97" height="3.061"/>
				<rect x="188.099" y="229.887" style="fill:#F0F0F0;" width="2.97" height="3.061"/>
				<rect x="188.099" y="235.018" style="fill:#F0F0F0;" width="2.97" height="3.061"/>
				<rect x="188.099" y="250.413" style="fill:#F0F0F0;" width="2.97" height="3.061"/>
				<rect x="188.099" y="255.545" style="fill:#F0F0F0;" width="2.97" height="3.061"/>
				<rect x="188.099" y="260.677" style="fill:#F0F0F0;" width="2.97" height="3.061"/>
				<rect x="188.099" y="265.808" style="fill:#F0F0F0;" width="2.97" height="3.061"/>
				<rect x="188.099" y="281.203" style="fill:#F0F0F0;" width="2.97" height="3.061"/>
				<rect x="188.099" y="286.335" style="fill:#F0F0F0;" width="2.97" height="3.061"/>
				<rect x="188.099" y="291.466" style="fill:#F0F0F0;" width="2.97" height="3.061"/>
				<rect x="188.099" y="296.598" style="fill:#F0F0F0;" width="2.97" height="3.061"/>
				<rect x="188.099" y="301.73" style="fill:#F0F0F0;" width="2.97" height="3.061"/>
				<rect x="188.099" y="311.993" style="fill:#F0F0F0;" width="2.97" height="3.061"/>
				<rect x="188.099" y="317.125" style="fill:#F0F0F0;" width="2.97" height="3.061"/>
				<rect x="230.901" y="257.076" style="fill:#F0F0F0;" width="2.97" height="3.061"/>
				<rect x="230.901" y="262.207" style="fill:#F0F0F0;" width="2.97" height="3.061"/>
				<rect x="230.901" y="267.339" style="fill:#F0F0F0;" width="2.97" height="3.061"/>
				<rect x="230.901" y="272.47" style="fill:#F0F0F0;" width="2.97" height="3.061"/>
				<rect x="230.901" y="277.602" style="fill:#F0F0F0;" width="2.97" height="3.061"/>
				<rect x="230.901" y="282.734" style="fill:#F0F0F0;" width="2.97" height="3.061"/>
				<rect x="230.901" y="287.865" style="fill:#F0F0F0;" width="2.97" height="3.061"/>
				<rect x="230.901" y="303.26" style="fill:#F0F0F0;" width="2.97" height="3.061"/>
				<rect x="230.901" y="308.392" style="fill:#F0F0F0;" width="2.97" height="3.061"/>
				<rect x="230.901" y="313.524" style="fill:#F0F0F0;" width="2.97" height="3.061"/>
				<rect x="235.618" y="257.076" style="fill:#F0F0F0;" width="2.97" height="3.061"/>
				<rect x="235.618" y="262.207" style="fill:#F0F0F0;" width="2.97" height="3.061"/>
				<rect x="235.618" y="267.339" style="fill:#F0F0F0;" width="2.97" height="3.061"/>
				<rect x="235.618" y="272.47" style="fill:#F0F0F0;" width="2.97" height="3.061"/>
				<rect x="235.618" y="277.602" style="fill:#F0F0F0;" width="2.97" height="3.061"/>
				<rect x="235.618" y="282.734" style="fill:#F0F0F0;" width="2.97" height="3.061"/>
				<rect x="235.618" y="287.865" style="fill:#F0F0F0;" width="2.97" height="3.061"/>
				<rect x="240.335" y="257.076" style="fill:#F0F0F0;" width="2.97" height="3.061"/>
				<rect x="240.335" y="262.207" style="fill:#F0F0F0;" width="2.97" height="3.061"/>
				<rect x="240.335" y="267.339" style="fill:#F0F0F0;" width="2.97" height="3.061"/>
				<rect x="240.335" y="272.47" style="fill:#F0F0F0;" width="2.97" height="3.061"/>
				<rect x="240.335" y="277.602" style="fill:#F0F0F0;" width="2.97" height="3.061"/>
				<rect x="240.335" y="282.734" style="fill:#F0F0F0;" width="2.97" height="3.061"/>
				<rect x="240.335" y="287.865" style="fill:#F0F0F0;" width="2.97" height="3.061"/>
				<rect x="245.051" y="257.076" style="fill:#F0F0F0;" width="2.97" height="3.061"/>
				<rect x="245.051" y="262.207" style="fill:#F0F0F0;" width="2.97" height="3.061"/>
				<rect x="245.051" y="267.339" style="fill:#F0F0F0;" width="2.97" height="3.061"/>
				<rect x="245.051" y="272.47" style="fill:#F0F0F0;" width="2.97" height="3.061"/>
				<rect x="245.051" y="277.602" style="fill:#F0F0F0;" width="2.97" height="3.061"/>
				<rect x="245.051" y="282.734" style="fill:#F0F0F0;" width="2.97" height="3.061"/>
				<rect x="245.051" y="287.865" style="fill:#F0F0F0;" width="2.97" height="3.061"/>
				<rect x="245.051" y="292.997" style="fill:#F0F0F0;" width="2.97" height="3.061"/>
				<rect x="245.051" y="298.129" style="fill:#F0F0F0;" width="2.97" height="3.061"/>
				<rect x="245.051" y="303.26" style="fill:#F0F0F0;" width="2.97" height="3.061"/>
				<rect x="245.051" y="308.392" style="fill:#F0F0F0;" width="2.97" height="3.061"/>
				<rect x="249.768" y="257.076" style="fill:#F0F0F0;" width="2.97" height="3.061"/>
				<rect x="249.768" y="262.207" style="fill:#F0F0F0;" width="2.97" height="3.061"/>
				<rect x="249.768" y="267.339" style="fill:#F0F0F0;" width="2.97" height="3.061"/>
				<rect x="249.768" y="272.47" style="fill:#F0F0F0;" width="2.97" height="3.061"/>
				<rect x="249.768" y="277.602" style="fill:#F0F0F0;" width="2.97" height="3.061"/>
				<rect x="249.768" y="282.734" style="fill:#F0F0F0;" width="2.97" height="3.061"/>
				<rect x="249.768" y="287.865" style="fill:#F0F0F0;" width="2.97" height="3.061"/>
				<rect x="249.768" y="292.997" style="fill:#F0F0F0;" width="2.97" height="3.061"/>
				<rect x="249.768" y="298.129" style="fill:#F0F0F0;" width="2.97" height="3.061"/>
				<rect x="249.768" y="303.26" style="fill:#F0F0F0;" width="2.97" height="3.061"/>
				<rect x="249.768" y="308.392" style="fill:#F0F0F0;" width="2.97" height="3.061"/>
				<rect x="249.768" y="313.524" style="fill:#F0F0F0;" width="2.97" height="3.061"/>
				<rect x="249.768" y="328.919" style="fill:#F0F0F0;" width="2.97" height="3.061"/>
				<rect x="249.768" y="334.05" style="fill:#F0F0F0;" width="2.97" height="3.061"/>
				<rect x="254.485" y="257.076" style="fill:#F0F0F0;" width="2.97" height="3.061"/>
				<rect x="254.485" y="262.207" style="fill:#F0F0F0;" width="2.97" height="3.061"/>
				<rect x="254.485" y="267.339" style="fill:#F0F0F0;" width="2.97" height="3.061"/>
				<rect x="254.485" y="282.734" style="fill:#F0F0F0;" width="2.97" height="3.061"/>
				<rect x="254.485" y="287.865" style="fill:#F0F0F0;" width="2.97" height="3.061"/>
				<rect x="254.485" y="292.997" style="fill:#F0F0F0;" width="2.97" height="3.061"/>
				<rect x="254.485" y="298.129" style="fill:#F0F0F0;" width="2.97" height="3.061"/>
				<rect x="254.485" y="303.26" style="fill:#F0F0F0;" width="2.97" height="3.061"/>
				<rect x="254.485" y="308.392" style="fill:#F0F0F0;" width="2.97" height="3.061"/>
				<rect x="254.485" y="313.524" style="fill:#F0F0F0;" width="2.97" height="3.061"/>
				<rect x="254.485" y="328.919" style="fill:#F0F0F0;" width="2.97" height="3.061"/>
				<rect x="254.485" y="334.05" style="fill:#F0F0F0;" width="2.97" height="3.061"/>
				<rect x="254.485" y="339.182" style="fill:#F0F0F0;" width="2.97" height="3.061"/>
				<rect x="303.925" y="226.286" style="fill:#F0F0F0;" width="2.97" height="3.061"/>
				<rect x="303.925" y="231.417" style="fill:#F0F0F0;" width="2.97" height="3.061"/>
				<rect x="303.925" y="236.549" style="fill:#F0F0F0;" width="2.97" height="3.061"/>
				<rect x="303.925" y="241.68" style="fill:#F0F0F0;" width="2.97" height="3.061"/>
				<rect x="303.925" y="246.812" style="fill:#F0F0F0;" width="2.97" height="3.061"/>
				<rect x="303.925" y="251.944" style="fill:#F0F0F0;" width="2.97" height="3.061"/>
				<rect x="303.925" y="257.076" style="fill:#F0F0F0;" width="2.97" height="3.061"/>
				<rect x="303.925" y="262.207" style="fill:#F0F0F0;" width="2.97" height="3.061"/>
				<rect x="303.925" y="267.339" style="fill:#F0F0F0;" width="2.97" height="3.061"/>
				<rect x="303.925" y="272.47" style="fill:#F0F0F0;" width="2.97" height="3.061"/>
				<rect x="303.925" y="277.602" style="fill:#F0F0F0;" width="2.97" height="3.061"/>
				<rect x="303.925" y="282.734" style="fill:#F0F0F0;" width="2.97" height="3.061"/>
				<rect x="303.925" y="287.865" style="fill:#F0F0F0;" width="2.97" height="3.061"/>
				<rect x="303.925" y="292.997" style="fill:#F0F0F0;" width="2.97" height="3.061"/>
				<rect x="303.925" y="298.129" style="fill:#F0F0F0;" width="2.97" height="3.061"/>
				<rect x="303.925" y="303.26" style="fill:#F0F0F0;" width="2.97" height="3.061"/>
				<rect x="303.925" y="308.392" style="fill:#F0F0F0;" width="2.97" height="3.061"/>
				<rect x="303.925" y="313.524" style="fill:#F0F0F0;" width="2.97" height="3.061"/>
				<rect x="303.925" y="318.655" style="fill:#F0F0F0;" width="2.97" height="3.061"/>
				<rect x="303.925" y="323.787" style="fill:#F0F0F0;" width="2.97" height="3.061"/>
				<rect x="303.925" y="328.919" style="fill:#F0F0F0;" width="2.97" height="3.061"/>
				<rect x="303.925" y="334.05" style="fill:#F0F0F0;" width="2.97" height="3.061"/>
				<rect x="303.925" y="339.182" style="fill:#F0F0F0;" width="2.97" height="3.061"/>
				<rect x="308.642" y="226.286" style="fill:#F0F0F0;" width="2.97" height="3.061"/>
				<rect x="308.642" y="231.417" style="fill:#F0F0F0;" width="2.97" height="3.061"/>
				<rect x="308.642" y="236.549" style="fill:#F0F0F0;" width="2.97" height="3.061"/>
				<rect x="308.642" y="241.68" style="fill:#F0F0F0;" width="2.97" height="3.061"/>
				<rect x="308.642" y="246.812" style="fill:#F0F0F0;" width="2.97" height="3.061"/>
				<rect x="308.642" y="251.944" style="fill:#F0F0F0;" width="2.97" height="3.061"/>
				<rect x="308.642" y="257.076" style="fill:#F0F0F0;" width="2.97" height="3.061"/>
				<rect x="308.642" y="262.207" style="fill:#F0F0F0;" width="2.97" height="3.061"/>
				<rect x="308.642" y="267.339" style="fill:#F0F0F0;" width="2.97" height="3.061"/>
				<rect x="308.642" y="272.47" style="fill:#F0F0F0;" width="2.97" height="3.061"/>
				<rect x="308.642" y="277.602" style="fill:#F0F0F0;" width="2.97" height="3.061"/>
				<rect x="308.642" y="282.734" style="fill:#F0F0F0;" width="2.97" height="3.061"/>
				<rect x="308.642" y="287.865" style="fill:#F0F0F0;" width="2.97" height="3.061"/>
				<rect x="308.642" y="292.997" style="fill:#F0F0F0;" width="2.97" height="3.061"/>
				<rect x="308.642" y="298.129" style="fill:#F0F0F0;" width="2.97" height="3.061"/>
				<rect x="308.642" y="303.26" style="fill:#F0F0F0;" width="2.97" height="3.061"/>
				<rect x="308.642" y="308.392" style="fill:#F0F0F0;" width="2.97" height="3.061"/>
				<rect x="308.642" y="313.524" style="fill:#F0F0F0;" width="2.97" height="3.061"/>
				<rect x="308.642" y="318.655" style="fill:#F0F0F0;" width="2.97" height="3.061"/>
				<rect x="313.359" y="226.286" style="fill:#F0F0F0;" width="2.97" height="3.061"/>
				<rect x="313.359" y="231.417" style="fill:#F0F0F0;" width="2.97" height="3.061"/>
				<rect x="313.359" y="236.549" style="fill:#F0F0F0;" width="2.97" height="3.061"/>
				<rect x="313.359" y="241.68" style="fill:#F0F0F0;" width="2.97" height="3.061"/>
				<rect x="313.359" y="246.812" style="fill:#F0F0F0;" width="2.97" height="3.061"/>
				<rect x="313.359" y="251.944" style="fill:#F0F0F0;" width="2.97" height="3.061"/>
				<rect x="313.359" y="257.076" style="fill:#F0F0F0;" width="2.97" height="3.061"/>
				<rect x="313.359" y="262.207" style="fill:#F0F0F0;" width="2.97" height="3.061"/>
				<rect x="313.359" y="267.339" style="fill:#F0F0F0;" width="2.97" height="3.061"/>
				<rect x="313.359" y="272.47" style="fill:#F0F0F0;" width="2.97" height="3.061"/>
				<rect x="313.359" y="277.602" style="fill:#F0F0F0;" width="2.97" height="3.061"/>
				<rect x="313.359" y="282.734" style="fill:#F0F0F0;" width="2.97" height="3.061"/>
				<rect x="313.359" y="287.865" style="fill:#F0F0F0;" width="2.97" height="3.061"/>
				<rect x="313.359" y="292.997" style="fill:#F0F0F0;" width="2.97" height="3.061"/>
				<rect x="313.359" y="298.129" style="fill:#F0F0F0;" width="2.97" height="3.061"/>
				<rect x="313.359" y="303.26" style="fill:#F0F0F0;" width="2.97" height="3.061"/>
				<rect x="313.359" y="308.392" style="fill:#F0F0F0;" width="2.97" height="3.061"/>
				<rect x="313.359" y="313.524" style="fill:#F0F0F0;" width="2.97" height="3.061"/>
				<rect x="313.359" y="318.655" style="fill:#F0F0F0;" width="2.97" height="3.061"/>
				<rect x="318.076" y="226.286" style="fill:#F0F0F0;" width="2.97" height="3.061"/>
				<rect x="318.076" y="231.417" style="fill:#F0F0F0;" width="2.97" height="3.061"/>
				<rect x="318.076" y="236.549" style="fill:#F0F0F0;" width="2.97" height="3.061"/>
				<rect x="318.076" y="241.68" style="fill:#F0F0F0;" width="2.97" height="3.061"/>
				<rect x="318.076" y="246.812" style="fill:#F0F0F0;" width="2.97" height="3.061"/>
				<rect x="318.076" y="251.944" style="fill:#F0F0F0;" width="2.97" height="3.061"/>
				<rect x="318.076" y="257.076" style="fill:#F0F0F0;" width="2.97" height="3.061"/>
				<rect x="318.076" y="262.207" style="fill:#F0F0F0;" width="2.97" height="3.061"/>
				<rect x="318.076" y="267.339" style="fill:#F0F0F0;" width="2.97" height="3.061"/>
				<rect x="318.076" y="272.47" style="fill:#F0F0F0;" width="2.97" height="3.061"/>
				<rect x="318.076" y="277.602" style="fill:#F0F0F0;" width="2.97" height="3.061"/>
				<rect x="318.076" y="282.734" style="fill:#F0F0F0;" width="2.97" height="3.061"/>
				<rect x="318.076" y="287.865" style="fill:#F0F0F0;" width="2.97" height="3.061"/>
				<rect x="318.076" y="292.997" style="fill:#F0F0F0;" width="2.97" height="3.061"/>
				<rect x="318.076" y="298.129" style="fill:#F0F0F0;" width="2.97" height="3.061"/>
				<rect x="322.792" y="226.286" style="fill:#F0F0F0;" width="2.97" height="3.061"/>
				<rect x="322.792" y="231.417" style="fill:#F0F0F0;" width="2.97" height="3.061"/>
				<rect x="322.792" y="236.549" style="fill:#F0F0F0;" width="2.97" height="3.061"/>
				<rect x="322.792" y="241.68" style="fill:#F0F0F0;" width="2.97" height="3.061"/>
				<rect x="322.792" y="246.812" style="fill:#F0F0F0;" width="2.97" height="3.061"/>
				<rect x="322.792" y="251.944" style="fill:#F0F0F0;" width="2.97" height="3.061"/>
				<rect x="322.792" y="257.076" style="fill:#F0F0F0;" width="2.97" height="3.061"/>
				<rect x="322.792" y="262.207" style="fill:#F0F0F0;" width="2.97" height="3.061"/>
				<rect x="322.792" y="267.339" style="fill:#F0F0F0;" width="2.97" height="3.061"/>
				<rect x="322.792" y="272.47" style="fill:#F0F0F0;" width="2.97" height="3.061"/>
				<rect x="322.792" y="277.602" style="fill:#F0F0F0;" width="2.97" height="3.061"/>
				<rect x="322.792" y="282.734" style="fill:#F0F0F0;" width="2.97" height="3.061"/>
				<rect x="322.792" y="287.865" style="fill:#F0F0F0;" width="2.97" height="3.061"/>
				<rect x="327.509" y="226.286" style="fill:#F0F0F0;" width="2.97" height="3.061"/>
				<rect x="327.509" y="231.417" style="fill:#F0F0F0;" width="2.97" height="3.061"/>
				<rect x="327.509" y="236.549" style="fill:#F0F0F0;" width="2.97" height="3.061"/>
				<rect x="327.509" y="241.68" style="fill:#F0F0F0;" width="2.97" height="3.061"/>
				<rect x="327.509" y="246.812" style="fill:#F0F0F0;" width="2.97" height="3.061"/>
				<rect x="327.509" y="251.944" style="fill:#F0F0F0;" width="2.97" height="3.061"/>
				<rect x="327.509" y="257.076" style="fill:#F0F0F0;" width="2.97" height="3.061"/>
				<rect x="327.509" y="262.207" style="fill:#F0F0F0;" width="2.97" height="3.061"/>
				<rect x="327.509" y="267.339" style="fill:#F0F0F0;" width="2.97" height="3.061"/>
				<rect x="327.509" y="272.47" style="fill:#F0F0F0;" width="2.97" height="3.061"/>
				<rect x="327.509" y="277.602" style="fill:#F0F0F0;" width="2.97" height="3.061"/>
				<rect x="327.509" y="282.734" style="fill:#F0F0F0;" width="2.97" height="3.061"/>
				<rect x="143.901" y="260.677" style="fill:#F0F0F0;" width="2.97" height="3.061"/>
				<rect x="143.901" y="265.808" style="fill:#F0F0F0;" width="2.97" height="3.061"/>
				<rect x="143.901" y="270.94" style="fill:#F0F0F0;" width="2.97" height="3.061"/>
				<rect x="143.901" y="276.072" style="fill:#F0F0F0;" width="2.97" height="3.061"/>
				<rect x="143.901" y="281.203" style="fill:#F0F0F0;" width="2.97" height="3.061"/>
				<rect x="143.901" y="286.335" style="fill:#F0F0F0;" width="2.97" height="3.061"/>
				<rect x="143.901" y="291.466" style="fill:#F0F0F0;" width="2.97" height="3.061"/>
				<rect x="143.901" y="296.598" style="fill:#F0F0F0;" width="2.97" height="3.061"/>
				<rect x="143.901" y="301.73" style="fill:#F0F0F0;" width="2.97" height="3.061"/>
				<rect x="143.901" y="306.862" style="fill:#F0F0F0;" width="2.97" height="3.061"/>
				<rect x="143.901" y="311.993" style="fill:#F0F0F0;" width="2.97" height="3.061"/>
				<rect x="143.901" y="317.125" style="fill:#F0F0F0;" width="2.97" height="3.061"/>
				<rect x="143.901" y="322.257" style="fill:#F0F0F0;" width="2.97" height="3.061"/>
				<rect x="143.901" y="332.52" style="fill:#F0F0F0;" width="2.97" height="3.061"/>
				<rect x="143.901" y="337.651" style="fill:#F0F0F0;" width="2.97" height="3.061"/>
				<rect x="143.901" y="342.783" style="fill:#F0F0F0;" width="2.97" height="3.061"/>
				<rect x="143.901" y="347.915" style="fill:#F0F0F0;" width="2.97" height="3.061"/>
				<rect x="143.901" y="358.178" style="fill:#F0F0F0;" width="2.97" height="3.061"/>
				<rect x="143.901" y="363.31" style="fill:#F0F0F0;" width="2.97" height="3.061"/>
				<rect x="143.901" y="368.441" style="fill:#F0F0F0;" width="2.97" height="3.061"/>
				<rect x="148.617" y="260.677" style="fill:#F0F0F0;" width="2.97" height="3.061"/>
				<rect x="148.617" y="265.808" style="fill:#F0F0F0;" width="2.97" height="3.061"/>
				<rect x="148.617" y="270.94" style="fill:#F0F0F0;" width="2.97" height="3.061"/>
				<rect x="148.617" y="276.072" style="fill:#F0F0F0;" width="2.97" height="3.061"/>
				<rect x="148.617" y="281.203" style="fill:#F0F0F0;" width="2.97" height="3.061"/>
				<rect x="148.617" y="286.335" style="fill:#F0F0F0;" width="2.97" height="3.061"/>
				<rect x="148.617" y="291.466" style="fill:#F0F0F0;" width="2.97" height="3.061"/>
				<rect x="148.617" y="296.598" style="fill:#F0F0F0;" width="2.97" height="3.061"/>
				<rect x="148.617" y="301.73" style="fill:#F0F0F0;" width="2.97" height="3.061"/>
				<rect x="148.617" y="306.862" style="fill:#F0F0F0;" width="2.97" height="3.061"/>
				<rect x="148.617" y="311.993" style="fill:#F0F0F0;" width="2.97" height="3.061"/>
				<rect x="148.617" y="317.125" style="fill:#F0F0F0;" width="2.97" height="3.061"/>
				<rect x="148.617" y="322.257" style="fill:#F0F0F0;" width="2.97" height="3.061"/>
				<rect x="148.617" y="337.651" style="fill:#F0F0F0;" width="2.97" height="3.061"/>
				<rect x="148.617" y="342.783" style="fill:#F0F0F0;" width="2.97" height="3.061"/>
				<rect x="148.617" y="353.046" style="fill:#F0F0F0;" width="2.97" height="3.061"/>
				<rect x="148.617" y="358.178" style="fill:#F0F0F0;" width="2.97" height="3.061"/>
				<rect x="148.617" y="363.31" style="fill:#F0F0F0;" width="2.97" height="3.061"/>
				<rect x="148.617" y="368.441" style="fill:#F0F0F0;" width="2.97" height="3.061"/>
				<rect x="153.334" y="260.677" style="fill:#F0F0F0;" width="2.97" height="3.061"/>
				<rect x="153.334" y="265.808" style="fill:#F0F0F0;" width="2.97" height="3.061"/>
				<rect x="153.334" y="270.94" style="fill:#F0F0F0;" width="2.97" height="3.061"/>
				<rect x="153.334" y="276.072" style="fill:#F0F0F0;" width="2.97" height="3.061"/>
				<rect x="153.334" y="281.203" style="fill:#F0F0F0;" width="2.97" height="3.061"/>
				<rect x="153.334" y="286.335" style="fill:#F0F0F0;" width="2.97" height="3.061"/>
				<rect x="153.334" y="291.466" style="fill:#F0F0F0;" width="2.97" height="3.061"/>
				<rect x="153.334" y="296.598" style="fill:#F0F0F0;" width="2.97" height="3.061"/>
				<rect x="153.334" y="301.73" style="fill:#F0F0F0;" width="2.97" height="3.061"/>
				<rect x="153.334" y="306.862" style="fill:#F0F0F0;" width="2.97" height="3.061"/>
				<rect x="153.334" y="311.993" style="fill:#F0F0F0;" width="2.97" height="3.061"/>
				<rect x="153.334" y="317.125" style="fill:#F0F0F0;" width="2.97" height="3.061"/>
				<rect x="153.334" y="322.257" style="fill:#F0F0F0;" width="2.97" height="3.061"/>
				<rect x="153.334" y="327.388" style="fill:#F0F0F0;" width="2.97" height="3.061"/>
				<rect x="153.334" y="337.651" style="fill:#F0F0F0;" width="2.97" height="3.061"/>
				<rect x="153.334" y="347.915" style="fill:#F0F0F0;" width="2.97" height="3.061"/>
				<rect x="153.334" y="353.046" style="fill:#F0F0F0;" width="2.97" height="3.061"/>
				<rect x="153.334" y="358.178" style="fill:#F0F0F0;" width="2.97" height="3.061"/>
				<rect x="153.334" y="363.31" style="fill:#F0F0F0;" width="2.97" height="3.061"/>
				<rect x="153.334" y="368.441" style="fill:#F0F0F0;" width="2.97" height="3.061"/>
				<rect x="124.684" y="289.936" style="fill:#F0F0F0;" width="2.97" height="3.061"/>
				<rect x="124.684" y="295.068" style="fill:#F0F0F0;" width="2.97" height="3.061"/>
				<rect x="124.684" y="300.199" style="fill:#F0F0F0;" width="2.97" height="3.061"/>
				<rect x="124.684" y="305.331" style="fill:#F0F0F0;" width="2.97" height="3.061"/>
				<rect x="124.684" y="310.463" style="fill:#F0F0F0;" width="2.97" height="3.061"/>
				<rect x="124.684" y="315.594" style="fill:#F0F0F0;" width="2.97" height="3.061"/>
				<rect x="124.684" y="330.989" style="fill:#F0F0F0;" width="2.97" height="3.061"/>
				<rect x="124.684" y="336.121" style="fill:#F0F0F0;" width="2.97" height="3.061"/>
				<rect x="124.684" y="341.253" style="fill:#F0F0F0;" width="2.97" height="3.061"/>
				<rect x="124.684" y="346.384" style="fill:#F0F0F0;" width="2.97" height="3.061"/>
				<rect x="124.684" y="351.516" style="fill:#F0F0F0;" width="2.97" height="3.061"/>
				<rect x="124.684" y="356.647" style="fill:#F0F0F0;" width="2.97" height="3.061"/>
				<rect x="124.684" y="361.779" style="fill:#F0F0F0;" width="2.97" height="3.061"/>
				<rect x="129.4" y="289.936" style="fill:#F0F0F0;" width="2.97" height="3.061"/>
				<rect x="129.4" y="295.068" style="fill:#F0F0F0;" width="2.97" height="3.061"/>
				<rect x="129.4" y="300.199" style="fill:#F0F0F0;" width="2.97" height="3.061"/>
				<rect x="129.4" y="305.331" style="fill:#F0F0F0;" width="2.97" height="3.061"/>
				<rect x="129.4" y="310.463" style="fill:#F0F0F0;" width="2.97" height="3.061"/>
				<rect x="129.4" y="315.594" style="fill:#F0F0F0;" width="2.97" height="3.061"/>
				<rect x="129.4" y="330.989" style="fill:#F0F0F0;" width="2.97" height="3.061"/>
				<rect x="129.4" y="336.121" style="fill:#F0F0F0;" width="2.97" height="3.061"/>
				<rect x="129.4" y="341.253" style="fill:#F0F0F0;" width="2.97" height="3.061"/>
				<rect x="129.4" y="346.384" style="fill:#F0F0F0;" width="2.97" height="3.061"/>
				<rect x="129.4" y="351.516" style="fill:#F0F0F0;" width="2.97" height="3.061"/>
				<rect x="129.4" y="356.647" style="fill:#F0F0F0;" width="2.97" height="3.061"/>
				<rect x="129.4" y="366.911" style="fill:#F0F0F0;" width="2.97" height="3.061"/>
				<rect x="286.106" y="267.339" style="fill:#F0F0F0;" width="2.97" height="3.061"/>
				<rect x="286.106" y="272.47" style="fill:#F0F0F0;" width="2.97" height="3.061"/>
				<rect x="286.106" y="277.602" style="fill:#F0F0F0;" width="2.97" height="3.061"/>
				<rect x="286.106" y="282.734" style="fill:#F0F0F0;" width="2.97" height="3.061"/>
				<rect x="286.106" y="287.865" style="fill:#F0F0F0;" width="2.97" height="3.061"/>
				<rect x="286.106" y="292.997" style="fill:#F0F0F0;" width="2.97" height="3.061"/>
				<rect x="286.106" y="298.129" style="fill:#F0F0F0;" width="2.97" height="3.061"/>
				<rect x="286.106" y="303.26" style="fill:#F0F0F0;" width="2.97" height="3.061"/>
				<rect x="286.106" y="308.392" style="fill:#F0F0F0;" width="2.97" height="3.061"/>
				<rect x="286.106" y="313.524" style="fill:#F0F0F0;" width="2.97" height="3.061"/>
				<rect x="286.106" y="318.655" style="fill:#F0F0F0;" width="2.97" height="3.061"/>
				<rect x="286.106" y="328.919" style="fill:#F0F0F0;" width="2.97" height="3.061"/>
				<rect x="286.106" y="334.05" style="fill:#F0F0F0;" width="2.97" height="3.061"/>
				<rect x="286.106" y="339.182" style="fill:#F0F0F0;" width="2.97" height="3.061"/>
				<rect x="286.106" y="344.314" style="fill:#F0F0F0;" width="2.97" height="3.061"/>
				<rect x="286.106" y="349.445" style="fill:#F0F0F0;" width="2.97" height="3.061"/>
				<rect x="286.106" y="354.577" style="fill:#F0F0F0;" width="2.97" height="3.061"/>
				<rect x="286.106" y="359.708" style="fill:#F0F0F0;" width="2.97" height="3.061"/>
				<rect x="286.106" y="364.84" style="fill:#F0F0F0;" width="2.97" height="3.061"/>
				<rect x="290.822" y="267.339" style="fill:#F0F0F0;" width="2.97" height="3.061"/>
				<rect x="290.822" y="272.47" style="fill:#F0F0F0;" width="2.97" height="3.061"/>
				<rect x="290.822" y="277.602" style="fill:#F0F0F0;" width="2.97" height="3.061"/>
				<rect x="290.822" y="282.734" style="fill:#F0F0F0;" width="2.97" height="3.061"/>
				<rect x="290.822" y="287.865" style="fill:#F0F0F0;" width="2.97" height="3.061"/>
				<rect x="290.822" y="292.997" style="fill:#F0F0F0;" width="2.97" height="3.061"/>
				<rect x="290.822" y="298.129" style="fill:#F0F0F0;" width="2.97" height="3.061"/>
				<rect x="290.822" y="303.26" style="fill:#F0F0F0;" width="2.97" height="3.061"/>
				<rect x="290.822" y="308.392" style="fill:#F0F0F0;" width="2.97" height="3.061"/>
				<rect x="290.822" y="313.524" style="fill:#F0F0F0;" width="2.97" height="3.061"/>
				<rect x="290.822" y="318.655" style="fill:#F0F0F0;" width="2.97" height="3.061"/>
				<rect x="290.822" y="323.787" style="fill:#F0F0F0;" width="2.97" height="3.061"/>
				<rect x="290.822" y="328.919" style="fill:#F0F0F0;" width="2.97" height="3.061"/>
				<rect x="290.822" y="334.05" style="fill:#F0F0F0;" width="2.97" height="3.061"/>
				<rect x="290.822" y="339.182" style="fill:#F0F0F0;" width="2.97" height="3.061"/>
				<rect x="290.822" y="344.314" style="fill:#F0F0F0;" width="2.97" height="3.061"/>
				<rect x="290.822" y="349.445" style="fill:#F0F0F0;" width="2.97" height="3.061"/>
				<rect x="290.822" y="354.577" style="fill:#F0F0F0;" width="2.97" height="3.061"/>
				<rect x="290.822" y="359.708" style="fill:#F0F0F0;" width="2.97" height="3.061"/>
				<rect x="290.822" y="364.84" style="fill:#F0F0F0;" width="2.97" height="3.061"/>
				<rect x="262.871" y="287.325" style="fill:#F0F0F0;" width="2.97" height="3.061"/>
				<rect x="262.871" y="292.457" style="fill:#F0F0F0;" width="2.97" height="3.061"/>
				<rect x="262.871" y="297.588" style="fill:#F0F0F0;" width="2.97" height="3.061"/>
				<rect x="262.871" y="302.72" style="fill:#F0F0F0;" width="2.97" height="3.061"/>
				<rect x="262.871" y="307.852" style="fill:#F0F0F0;" width="2.97" height="3.061"/>
				<rect x="262.871" y="312.983" style="fill:#F0F0F0;" width="2.97" height="3.061"/>
				<rect x="262.871" y="318.115" style="fill:#F0F0F0;" width="2.97" height="3.061"/>
				<rect x="262.871" y="323.247" style="fill:#F0F0F0;" width="2.97" height="3.061"/>
				<rect x="262.871" y="328.378" style="fill:#F0F0F0;" width="2.97" height="3.061"/>
				<rect x="262.871" y="333.51" style="fill:#F0F0F0;" width="2.97" height="3.061"/>
				<rect x="267.588" y="287.325" style="fill:#F0F0F0;" width="2.97" height="3.061"/>
				<rect x="267.588" y="292.457" style="fill:#F0F0F0;" width="2.97" height="3.061"/>
				<rect x="267.588" y="297.588" style="fill:#F0F0F0;" width="2.97" height="3.061"/>
				<rect x="267.588" y="302.72" style="fill:#F0F0F0;" width="2.97" height="3.061"/>
				<rect x="267.588" y="307.852" style="fill:#F0F0F0;" width="2.97" height="3.061"/>
				<rect x="267.588" y="312.983" style="fill:#F0F0F0;" width="2.97" height="3.061"/>
				<rect x="267.588" y="318.115" style="fill:#F0F0F0;" width="2.97" height="3.061"/>
				<rect x="267.588" y="323.247" style="fill:#F0F0F0;" width="2.97" height="3.061"/>
				<rect x="267.588" y="328.378" style="fill:#F0F0F0;" width="2.97" height="3.061"/>
			</g>
		</g>
		<g>
			<path style="fill:#F5F5F5;" d="M124.219,101.172c0-3.107,2.444-5.625,5.458-5.625c0.545,0,1.07,0.085,1.567,0.238
				c-0.08-0.564-0.123-1.14-0.123-1.727c0-6.579,5.175-11.912,11.558-11.912c0.728,0,1.439,0.073,2.129,0.205
				c1.776-2.996,4.97-5.003,8.626-5.003c5.534,0,10.023,4.583,10.105,10.267c0.057-0.001,0.112-0.009,0.168-0.009
				c5.142,0,9.31,4.296,9.31,9.596c0,5.3-4.168,9.596-9.31,9.596h-34.191l0.007-0.008
				C126.58,106.704,124.219,104.225,124.219,101.172z"/>
			<path style="fill:#F5F5F5;" d="M228.102,156.238c0-3.107,2.444-5.625,5.458-5.625c0.545,0,1.07,0.085,1.567,0.238
				c-0.08-0.564-0.122-1.14-0.122-1.727c0-6.579,5.174-11.912,11.558-11.912c0.727,0,1.438,0.073,2.129,0.205
				c1.776-2.996,4.97-5.003,8.626-5.003c5.534,0,10.023,4.583,10.105,10.266c0.057-0.001,0.112-0.009,0.168-0.009
				c5.142,0,9.31,4.296,9.31,9.596s-4.168,9.596-9.31,9.596H233.4l0.007-0.008C230.464,161.77,228.102,159.291,228.102,156.238z"/>
			<path style="fill:#F5F5F5;" d="M127.474,206.977c0-3.107,2.444-5.625,5.458-5.625c0.545,0,1.07,0.085,1.567,0.238
				c-0.08-0.564-0.122-1.14-0.122-1.727c0-6.579,5.175-11.912,11.558-11.912c0.728,0,1.439,0.073,2.129,0.205
				c1.776-2.996,4.97-5.003,8.626-5.003c5.534,0,10.023,4.583,10.105,10.266c0.057-0.001,0.112-0.009,0.168-0.009
				c5.142,0,9.31,4.296,9.31,9.596c0,5.3-4.168,9.596-9.31,9.596h-34.191l0.007-0.008
				C129.836,212.51,127.474,210.031,127.474,206.977z"/>
			<path style="fill:#F5F5F5;" d="M383.404,138.444c0-1.878,1.477-3.4,3.299-3.4c0.329,0,0.647,0.051,0.947,0.144
				c-0.048-0.341-0.074-0.689-0.074-1.044c0-3.976,3.128-7.2,6.986-7.2c0.44,0,0.869,0.044,1.287,0.124
				c1.074-1.811,3.004-3.024,5.214-3.024c3.345,0,6.058,2.77,6.108,6.205c0.034-0.001,0.068-0.005,0.102-0.005
				c3.108,0,5.627,2.597,5.627,5.8s-2.519,5.8-5.627,5.8h-20.666l0.004-0.005C384.832,141.788,383.404,140.289,383.404,138.444z"/>
			<path style="fill:#F5F5F5;" d="M69.183,142.618c0-1.878,1.477-3.4,3.299-3.4c0.329,0,0.647,0.051,0.947,0.144
				c-0.048-0.341-0.074-0.689-0.074-1.044c0-3.976,3.128-7.2,6.986-7.2c0.44,0,0.869,0.044,1.287,0.124
				c1.074-1.811,3.004-3.024,5.214-3.024c3.345,0,6.058,2.77,6.108,6.205c0.034-0.001,0.067-0.005,0.102-0.005
				c3.108,0,5.627,2.597,5.627,5.8c0,3.203-2.519,5.8-5.627,5.8H72.385l0.004-0.005C70.61,145.962,69.183,144.464,69.183,142.618z"
				/>
			<path style="fill:#F5F5F5;" d="M320.193,102.312c0-1.878,1.477-3.4,3.299-3.4c0.329,0,0.647,0.051,0.947,0.144
				c-0.048-0.341-0.074-0.689-0.074-1.044c0-3.976,3.128-7.2,6.986-7.2c0.44,0,0.87,0.044,1.287,0.124
				c1.074-1.811,3.004-3.024,5.214-3.024c3.345,0,6.058,2.77,6.108,6.205c0.034-0.001,0.067-0.005,0.102-0.005
				c3.108,0,5.627,2.597,5.627,5.8c0,3.203-2.519,5.8-5.627,5.8h-20.665l0.004-0.005
				C321.621,105.656,320.193,104.157,320.193,102.312z"/>
		</g>
	</g>
</g>
<g id="Background_Simple" style="display:none;">
	<g style="display:inline;">
		<path style="fill:#407BFF;" d="M92.578,116.761c27.919-59.449,127.059-51.062,165.317-9.255
			c38.258,41.806,50.696,68.599,85.208,52.983c34.512-15.616,78.518-11.44,81.043,38.164s-37.913,108.263-102.09,125.615
			c-64.177,17.352-64.161,78.759-149.1,66.368c-46.31-6.756-47.365-56.86-40.825-98.301
			C138.671,250.895,60.2,185.705,92.578,116.761z"/>
		<path style="opacity:0.9;fill:#FFFFFF;" d="M92.578,116.761c27.919-59.449,127.059-51.062,165.317-9.255
			c38.258,41.806,50.696,68.599,85.208,52.983c34.512-15.616,78.518-11.44,81.043,38.164s-37.913,108.263-102.09,125.615
			c-64.177,17.352-64.161,78.759-149.1,66.368c-46.31-6.756-47.365-56.86-40.825-98.301
			C138.671,250.895,60.2,185.705,92.578,116.761z"/>
	</g>
</g>
<g id="Shadow_1_">
	<ellipse id="_x3C_Path_x3E__359_" style="fill:#F5F5F5;" cx="250" cy="416.238" rx="193.889" ry="11.323"/>
</g>
<g id="Plant">
	<g>
		<g>
			<path style="fill:#263238;" d="M90.687,337.147c0.21,1.47-3.777,2.438-7.028,2.98c0.265,2.669,2.041,5.366,4.494,7.886
				c3.086-1.738,7.49-4.036,8.302-3.475c0.886,0.613-3.624,3.529-6.445,5.244c1.984,1.761,4.218,3.402,6.389,4.84
				c1.383-1.292,3.002-2.426,3.967-1.813c1.001,0.637,0.73,2.636,0.236,4.42c3.356,1.957,5.87,3.147,5.87,3.147
				s1.409-4.271,2.242-9.53c-0.169-0.334-0.338-0.672-0.492-1.029c-0.541-1.251-0.014-1.783,0.879-1.959
				c0.231-2.302,0.297-4.669,0.055-6.865c-3.799-0.797-8.418-2.272-6.688-4.55c1.043-1.374,2.954-1.53,4.942-1.185
				c-0.278-0.458-0.586-0.89-0.938-1.278c-6.914-7.618-11.737,0-11.737,0c-4.018-3.348-9.662-2.442-10.882,2.79
				C86.11,336.191,90.428,335.331,90.687,337.147z"/>
			<path style="opacity:0.3;fill:#FFFFFF;enable-background:new    ;" d="M90.687,337.147c0.21,1.47-3.777,2.438-7.028,2.98
				c0.265,2.669,2.041,5.366,4.494,7.886c3.086-1.738,7.49-4.036,8.302-3.475c0.886,0.613-3.624,3.529-6.445,5.244
				c1.984,1.761,4.218,3.402,6.389,4.84c1.383-1.292,3.002-2.426,3.967-1.813c1.001,0.637,0.73,2.636,0.236,4.42
				c3.356,1.957,5.87,3.147,5.87,3.147s1.409-4.271,2.242-9.53c-0.169-0.334-0.338-0.672-0.492-1.029
				c-0.541-1.251-0.014-1.783,0.879-1.959c0.231-2.302,0.297-4.669,0.055-6.865c-3.799-0.797-8.418-2.272-6.688-4.55
				c1.043-1.374,2.954-1.53,4.942-1.185c-0.278-0.458-0.586-0.89-0.938-1.278c-6.914-7.618-11.737,0-11.737,0
				c-4.018-3.348-9.662-2.442-10.882,2.79C86.11,336.191,90.428,335.331,90.687,337.147z"/>
		</g>
		<g>
			<g>
				<path style="fill:#263238;" d="M99.314,393.133l-0.997-0.082c0.042-0.515,4.094-51.525-7.354-56.334
					c-1.229-0.517-2.365-0.488-3.47,0.087c-4.136,2.151-6.119,11.082-6.138,11.173l-0.978-0.213
					c0.084-0.386,2.102-9.478,6.653-11.847c1.367-0.711,2.82-0.752,4.32-0.122C103.461,340.882,99.489,391.002,99.314,393.133z"/>
			</g>
			<g>
				<path style="fill:#263238;" d="M100.757,392.027c-0.203-2.295-4.876-56.268,3.862-61.997c2.095-1.373,3.962-1.667,5.549-0.863
					c4.129,2.082,4.671,10.91,4.692,11.284l-0.998,0.057c-0.005-0.086-0.529-8.626-4.145-10.449
					c-1.244-0.625-2.775-0.356-4.55,0.808c-8.242,5.405-3.463,60.517-3.414,61.073L100.757,392.027z"/>
			</g>
			<g>
				<path style="fill:#263238;" d="M102.071,396.391c-0.065-1.757-1.504-43.071,6.452-46.688c1.573-0.715,3.166-0.727,4.732-0.038
					c5.46,2.402,8.832,12.577,8.973,13.009l-0.951,0.311c-0.033-0.102-3.374-10.183-8.425-12.404
					c-1.313-0.576-2.595-0.567-3.915,0.033c-6.101,2.773-6.304,33.958-5.867,45.74L102.071,396.391z"/>
			</g>
			<g>
				<path style="fill:#263238;" d="M100.046,394.501l-0.993-0.113c1.402-12.296,4.083-45.061-0.297-48.97
					c-0.653-0.584-1.238-0.764-1.791-0.554c-2.935,1.126-4.722,11.783-5.163,15.795l-0.994-0.109
					c0.169-1.538,1.768-15.073,5.798-16.619c0.922-0.354,1.869-0.105,2.816,0.741C105.081,349.723,100.254,392.675,100.046,394.501z
					"/>
			</g>
		</g>
		<g>
			<polygon style="fill:#407BFF;" points="83.358,371.191 119.285,371.191 116.285,411.434 86.358,411.434 			"/>
			<polygon style="opacity:0.2;fill:#FFFFFF;enable-background:new    ;" points="94.271,371.191 95.271,411.434 116.285,411.434 
				119.285,371.191 			"/>
		</g>
		<g>
			<path style="fill:#263238;" d="M88.252,356.423c-0.374,0.979-3.165,0.209-5.356-0.572c-0.752,1.737-0.581,4.009,0.068,6.404
				c2.499-0.014,6.003,0.079,6.311,0.703c0.336,0.682-3.445,0.934-5.772,1.025c0.62,1.766,1.435,3.544,2.281,5.175
				c1.296-0.323,2.684-0.467,3.068,0.242c0.399,0.736-0.453,1.876-1.37,2.807c1.399,2.357,2.541,3.953,2.541,3.953
				s2.333-2.151,4.65-5.108c0.01-0.264,0.022-0.53,0.049-0.803c0.095-0.957,0.603-1.105,1.214-0.907
				c0.932-1.34,1.784-2.777,2.388-4.215c-2.07-1.794-4.413-4.287-2.565-5.099c1.115-0.49,2.346,0.069,3.454,0.963
				c-0.014-0.378-0.056-0.749-0.14-1.11c-1.652-7.069-7.239-4.024-7.239-4.024c-1.33-3.443-5.122-4.819-7.668-2.01
				C85.757,354.264,88.715,355.214,88.252,356.423z"/>
			<path style="opacity:0.3;fill:#FFFFFF;enable-background:new    ;" d="M88.252,356.423c-0.374,0.979-3.165,0.209-5.356-0.572
				c-0.752,1.737-0.581,4.009,0.068,6.404c2.499-0.014,6.003,0.079,6.311,0.703c0.336,0.682-3.445,0.934-5.772,1.025
				c0.62,1.766,1.435,3.544,2.281,5.175c1.296-0.323,2.684-0.467,3.068,0.242c0.399,0.736-0.453,1.876-1.37,2.807
				c1.399,2.357,2.541,3.953,2.541,3.953s2.333-2.151,4.65-5.108c0.01-0.264,0.022-0.53,0.049-0.803
				c0.095-0.957,0.603-1.105,1.214-0.907c0.932-1.34,1.784-2.777,2.388-4.215c-2.07-1.794-4.413-4.287-2.565-5.099
				c1.115-0.49,2.346,0.069,3.454,0.963c-0.014-0.378-0.056-0.749-0.14-1.11c-1.652-7.069-7.239-4.024-7.239-4.024
				c-1.33-3.443-5.122-4.819-7.668-2.01C85.757,354.264,88.715,355.214,88.252,356.423z"/>
		</g>
		<g>
			<path style="fill:#263238;" d="M114.928,361.201c-1.133,0.084-2.221,0.344-3.283,0.691c-0.277-0.759-0.458-1.55-0.484-2.377
				c-0.228-7.246,4.959-4.191,7.7-6.32c1.367-1.062,3.041-1.744,4.585-1.438c-0.231,0.399-0.443,0.812-0.62,1.24
				c-0.287,0.694,0.166,1.417,0.877,1.55c0.669,0.125,1.42,0.067,2.035-0.241c0.192-0.096,0.353-0.236,0.523-0.362
				c0.383,0.646,0.722,1.439,0.995,2.423c0.279,1.007,0.423,2.051,0.469,3.099c-0.408,0.091-0.813,0.2-1.212,0.342
				c-0.623,0.221-0.956,1.217-0.454,1.722c0.441,0.443,0.946,0.795,1.495,1.049c-0.179,1.193-0.512,2.325-0.912,3.396
				c-0.123,0.019-0.247,0.033-0.369,0.057c-0.264,0.051-0.524,0.12-0.782,0.193c-0.148,0.042-0.295,0.092-0.434,0.159
				c-0.359,0.17-0.621,0.477-0.677,0.879c-0.056,0.395,0.109,0.804,0.427,1.046c0.169,0.129,0.355,0.23,0.539,0.332
				c-0.826,1.307-1.803,2.343-2.87,2.896c0,0-1.322-0.577-3.052-1.613c0.216-0.29,0.433-0.58,0.634-0.88
				c0.238-0.353,0.343-0.716,0.307-1.138c-0.034-0.409-0.282-0.766-0.587-1.022c-0.294-0.248-0.764-0.356-1.138-0.308
				c-0.366,0.047-0.811,0.272-1.022,0.587c-0.24,0.357-0.505,0.697-0.767,1.038c-1.324-0.998-2.641-2.203-3.68-3.573
				c0.04-0.012,0.083-0.024,0.11-0.032c0.669-0.175,1.353-0.288,2.042-0.339c0.861-0.064,1.397-0.93,1.33-1.725
				C116.581,361.669,115.73,361.141,114.928,361.201z"/>
			<path style="opacity:0.5;fill:#FFFFFF;enable-background:new    ;" d="M114.928,361.201c-1.133,0.084-2.221,0.344-3.283,0.691
				c-0.277-0.759-0.458-1.55-0.484-2.377c-0.228-7.246,4.959-4.191,7.7-6.32c1.367-1.062,3.041-1.744,4.585-1.438
				c-0.231,0.399-0.443,0.812-0.62,1.24c-0.287,0.694,0.166,1.417,0.877,1.55c0.669,0.125,1.42,0.067,2.035-0.241
				c0.192-0.096,0.353-0.236,0.523-0.362c0.383,0.646,0.722,1.439,0.995,2.423c0.279,1.007,0.423,2.051,0.469,3.099
				c-0.408,0.091-0.813,0.2-1.212,0.342c-0.623,0.221-0.956,1.217-0.454,1.722c0.441,0.443,0.946,0.795,1.495,1.049
				c-0.179,1.193-0.512,2.325-0.912,3.396c-0.123,0.019-0.247,0.033-0.369,0.057c-0.264,0.051-0.524,0.12-0.782,0.193
				c-0.148,0.042-0.295,0.092-0.434,0.159c-0.359,0.17-0.621,0.477-0.677,0.879c-0.056,0.395,0.109,0.804,0.427,1.046
				c0.169,0.129,0.355,0.23,0.539,0.332c-0.826,1.307-1.803,2.343-2.87,2.896c0,0-1.322-0.577-3.052-1.613
				c0.216-0.29,0.433-0.58,0.634-0.88c0.238-0.353,0.343-0.716,0.307-1.138c-0.034-0.409-0.282-0.766-0.587-1.022
				c-0.294-0.248-0.764-0.356-1.138-0.308c-0.366,0.047-0.811,0.272-1.022,0.587c-0.24,0.357-0.505,0.697-0.767,1.038
				c-1.324-0.998-2.641-2.203-3.68-3.573c0.04-0.012,0.083-0.024,0.11-0.032c0.669-0.175,1.353-0.288,2.042-0.339
				c0.861-0.064,1.397-0.93,1.33-1.725C116.581,361.669,115.73,361.141,114.928,361.201z"/>
		</g>
		<g>
			<path style="fill:#263238;" d="M117.001,336.219c0.632-0.453,1.317-0.794,2.028-1.078c-0.188-0.52-0.44-1.015-0.789-1.461
				c-3.06-3.906-4.444-0.025-6.819,0.059c-1.184,0.042-2.363,0.418-3.04,1.257c0.297,0.108,0.589,0.232,0.87,0.379
				c0.455,0.239,0.535,0.817,0.219,1.199c-0.296,0.359-0.716,0.659-1.175,0.766c-0.143,0.034-0.289,0.031-0.434,0.04
				c0.083,0.508,0.252,1.072,0.541,1.71c0.295,0.652,0.678,1.263,1.114,1.833c0.254-0.131,0.515-0.251,0.787-0.352
				c0.425-0.157,1.037,0.22,0.994,0.706c-0.037,0.426-0.148,0.833-0.325,1.207c0.618,0.548,1.289,0.997,1.97,1.384
				c0.073-0.044,0.144-0.091,0.219-0.132c0.161-0.089,0.328-0.167,0.496-0.242c0.096-0.043,0.195-0.081,0.298-0.107
				c0.263-0.068,0.535-0.022,0.741,0.164c0.203,0.183,0.296,0.47,0.235,0.737c-0.032,0.142-0.085,0.276-0.138,0.411
				c1.008,0.324,1.975,0.44,2.779,0.262c0,0,0.441-0.883,0.896-2.187c-0.241-0.057-0.482-0.115-0.719-0.184
				c-0.28-0.081-0.494-0.225-0.661-0.463c-0.162-0.23-0.188-0.526-0.14-0.795c0.046-0.259,0.245-0.522,0.463-0.661
				c0.213-0.136,0.545-0.213,0.795-0.14c0.283,0.082,0.571,0.144,0.858,0.208c0.257-1.105,0.421-2.316,0.365-3.492
				c-0.026,0.012-0.054,0.024-0.072,0.031c-0.428,0.202-0.837,0.442-1.222,0.718c-0.48,0.344-1.142,0.124-1.456-0.323
				C116.339,337.191,116.554,336.54,117.001,336.219z"/>
			<path style="opacity:0.3;fill:#FFFFFF;enable-background:new    ;" d="M117.001,336.219c0.632-0.453,1.317-0.794,2.028-1.078
				c-0.188-0.52-0.44-1.015-0.789-1.461c-3.06-3.906-4.444-0.025-6.819,0.059c-1.184,0.042-2.363,0.418-3.04,1.257
				c0.297,0.108,0.589,0.232,0.87,0.379c0.455,0.239,0.535,0.817,0.219,1.199c-0.296,0.359-0.716,0.659-1.175,0.766
				c-0.143,0.034-0.289,0.031-0.434,0.04c0.083,0.508,0.252,1.072,0.541,1.71c0.295,0.652,0.678,1.263,1.114,1.833
				c0.254-0.131,0.515-0.251,0.787-0.352c0.425-0.157,1.037,0.22,0.994,0.706c-0.037,0.426-0.148,0.833-0.325,1.207
				c0.618,0.548,1.289,0.997,1.97,1.384c0.073-0.044,0.144-0.091,0.219-0.132c0.161-0.089,0.328-0.167,0.496-0.242
				c0.096-0.043,0.195-0.081,0.298-0.107c0.263-0.068,0.535-0.022,0.741,0.164c0.203,0.183,0.296,0.47,0.235,0.737
				c-0.032,0.142-0.085,0.276-0.138,0.411c1.008,0.324,1.975,0.44,2.779,0.262c0,0,0.441-0.883,0.896-2.187
				c-0.241-0.057-0.482-0.115-0.719-0.184c-0.28-0.081-0.494-0.225-0.661-0.463c-0.162-0.23-0.188-0.526-0.14-0.795
				c0.046-0.259,0.245-0.522,0.463-0.661c0.213-0.136,0.545-0.213,0.795-0.14c0.283,0.082,0.571,0.144,0.858,0.208
				c0.257-1.105,0.421-2.316,0.365-3.492c-0.026,0.012-0.054,0.024-0.072,0.031c-0.428,0.202-0.837,0.442-1.222,0.718
				c-0.48,0.344-1.142,0.124-1.456-0.323C116.339,337.191,116.554,336.54,117.001,336.219z"/>
		</g>
		<g>
			<path style="fill:#263238;" d="M87.729,343.471c-0.21,1.47,3.777,2.438,7.028,2.98c-0.265,2.669-2.041,5.367-4.494,7.886
				c-3.085-1.738-7.49-4.036-8.302-3.475c-0.886,0.613,3.624,3.529,6.444,5.244c-1.984,1.761-4.218,3.402-6.389,4.84
				c-1.383-1.292-3.002-2.426-3.967-1.813c-1.001,0.637-0.73,2.636-0.236,4.42c-3.357,1.957-5.87,3.147-5.87,3.147
				s-1.409-4.271-2.242-9.53c0.169-0.334,0.338-0.672,0.492-1.029c0.541-1.251,0.014-1.783-0.879-1.959
				c-0.231-2.302-0.298-4.669-0.055-6.866c3.799-0.797,8.418-2.272,6.688-4.55c-1.044-1.374-2.954-1.53-4.942-1.186
				c0.278-0.458,0.586-0.89,0.938-1.278c6.914-7.618,11.737,0,11.737,0c4.018-3.349,9.662-2.442,10.882,2.79
				C92.307,342.515,87.988,341.655,87.729,343.471z"/>
			<path style="opacity:0.5;fill:#FFFFFF;enable-background:new    ;" d="M87.729,343.471c-0.21,1.47,3.777,2.438,7.028,2.98
				c-0.265,2.669-2.041,5.367-4.494,7.886c-3.085-1.738-7.49-4.036-8.302-3.475c-0.886,0.613,3.624,3.529,6.444,5.244
				c-1.984,1.761-4.218,3.402-6.389,4.84c-1.383-1.292-3.002-2.426-3.967-1.813c-1.001,0.637-0.73,2.636-0.236,4.42
				c-3.357,1.957-5.87,3.147-5.87,3.147s-1.409-4.271-2.242-9.53c0.169-0.334,0.338-0.672,0.492-1.029
				c0.541-1.251,0.014-1.783-0.879-1.959c-0.231-2.302-0.298-4.669-0.055-6.866c3.799-0.797,8.418-2.272,6.688-4.55
				c-1.044-1.374-2.954-1.53-4.942-1.186c0.278-0.458,0.586-0.89,0.938-1.278c6.914-7.618,11.737,0,11.737,0
				c4.018-3.349,9.662-2.442,10.882,2.79C92.307,342.515,87.988,341.655,87.729,343.471z"/>
		</g>
	</g>
</g>
<g id="Sign">
	<g>
		<g>
			<g>
				<polygon style="fill:#263238;" points="289.398,406.609 289.398,286.98 283.988,286.98 283.988,406.609 277.052,409.31 
					277.052,411.432 286.058,411.432 287.329,411.432 296.335,411.432 296.335,409.31 				"/>
				<polygon style="fill:#263238;" points="389.461,406.609 389.461,286.98 384.051,286.98 384.051,406.609 377.115,409.31 
					377.115,411.432 386.121,411.432 387.392,411.432 396.398,411.432 396.398,409.31 				"/>
			</g>
			<polygon style="opacity:0.5;fill:#FFFFFF;" points="296.337,409.314 296.337,411.434 277.047,411.434 277.047,409.314 
				283.987,406.604 283.987,286.978 289.397,286.978 289.397,406.604 			"/>
			<polygon style="opacity:0.5;fill:#FFFFFF;" points="396.397,409.314 396.397,411.434 377.117,411.434 377.117,409.314 
				384.047,406.604 384.047,286.978 389.457,286.978 389.457,406.604 			"/>
			<polygon style="opacity:0.2;enable-background:new    ;" points="283.987,286.978 289.397,286.978 289.397,298.458 
				283.987,297.848 			"/>
			<polygon style="opacity:0.2;enable-background:new    ;" points="389.457,286.978 389.457,309.678 384.047,309.068 
				384.047,286.978 			"/>
		</g>
		<g>
			<rect x="267.586" y="177.52" style="fill:#263238;" width="138.27" height="116.73"/>
			<rect x="267.441" y="279.846" style="fill:#407BFF;" width="138.563" height="14.405"/>
			<rect x="267.441" y="177.52" style="fill:#407BFF;" width="138.563" height="14.407"/>
			<g style="opacity:0.6;">
				<path style="fill:#FFFFFF;" d="M319,252.833h-6.825v8.826h-4.978v-8.826h-19.961v-3.593l18.371-23.502h5.542l-17.601,22.682
					h13.804v-7.8h4.824v7.8H319V252.833z"/>
				<path style="fill:#FFFFFF;" d="M322.074,243.698c0-11.699,6.26-18.37,14.676-18.37c8.365,0,14.625,6.671,14.625,18.37
					c0,11.7-6.26,18.371-14.625,18.371C328.335,262.069,322.074,255.398,322.074,243.698z M346.244,243.698
					c0-9.186-3.9-13.803-9.494-13.803c-5.645,0-9.544,4.618-9.544,13.803c0,9.186,3.9,13.804,9.544,13.804
					C342.344,257.502,346.244,252.884,346.244,243.698z"/>
				<path style="fill:#FFFFFF;" d="M387.548,252.833h-6.825v8.826h-4.978v-8.826h-19.961v-3.593l18.371-23.502h5.542l-17.601,22.682
					h13.804v-7.8h4.824v7.8h6.825V252.833z"/>
			</g>
			<g style="opacity:0.6;">
				<path style="fill:#FFFFFF;" d="M319.682,209.766v1.795h-7.485v-9.666h7.305v1.795h-5.082v2.099h4.488v1.74h-4.488v2.237H319.682
					z"/>
				<path style="fill:#FFFFFF;" d="M327.618,211.561l-1.864-2.692h-0.11h-1.947v2.692h-2.237v-9.666h4.185
					c2.582,0,4.198,1.339,4.198,3.507c0,1.45-0.732,2.514-1.988,3.052l2.168,3.107H327.618z M325.519,203.717h-1.823v3.369h1.823
					c1.367,0,2.058-0.635,2.058-1.685C327.576,204.338,326.886,203.717,325.519,203.717z"/>
				<path style="fill:#FFFFFF;" d="M337.762,211.561l-1.864-2.692h-0.11h-1.947v2.692h-2.237v-9.666h4.185
					c2.582,0,4.198,1.339,4.198,3.507c0,1.45-0.732,2.514-1.988,3.052l2.168,3.107H337.762z M335.663,203.717h-1.823v3.369h1.823
					c1.367,0,2.058-0.635,2.058-1.685C337.721,204.338,337.03,203.717,335.663,203.717z"/>
				<path style="fill:#FFFFFF;" d="M341.14,206.727c0-2.872,2.237-4.999,5.289-4.999c3.038,0,5.289,2.112,5.289,4.999
					c0,2.886-2.251,4.999-5.289,4.999C343.377,211.727,341.14,209.6,341.14,206.727z M349.453,206.727
					c0-1.837-1.298-3.094-3.024-3.094s-3.024,1.257-3.024,3.094c0,1.836,1.298,3.093,3.024,3.093S349.453,208.564,349.453,206.727z"
					/>
				<path style="fill:#FFFFFF;" d="M359.556,211.561l-1.864-2.692h-0.11h-1.947v2.692h-2.237v-9.666h4.185
					c2.582,0,4.198,1.339,4.198,3.507c0,1.45-0.732,2.514-1.988,3.052l2.168,3.107H359.556z M357.457,203.717h-1.823v3.369h1.823
					c1.367,0,2.058-0.635,2.058-1.685C359.514,204.338,358.824,203.717,357.457,203.717z"/>
			</g>
			<g style="opacity:0.7;">
				<polygon style="fill:#FFFFFF;" points="281.466,279.849 271.186,294.25 267.586,294.25 267.586,288.949 274.086,279.849 				"/>
				<polygon style="fill:#FFFFFF;" points="285.426,294.251 278.041,294.251 288.327,279.846 295.712,279.846 				"/>
				<polygon style="fill:#FFFFFF;" points="299.668,294.251 292.283,294.251 302.569,279.846 309.953,279.846 				"/>
				<polygon style="fill:#FFFFFF;" points="313.909,294.251 306.525,294.251 316.811,279.846 324.195,279.846 				"/>
				<polygon style="fill:#FFFFFF;" points="328.151,294.251 320.767,294.251 331.052,279.846 338.437,279.846 				"/>
				<polygon style="fill:#FFFFFF;" points="342.393,294.251 335.008,294.251 345.294,279.846 352.679,279.846 				"/>
				<polygon style="fill:#FFFFFF;" points="356.635,294.251 349.25,294.251 359.536,279.846 366.921,279.846 				"/>
				<polygon style="fill:#FFFFFF;" points="370.876,294.251 363.492,294.251 373.778,279.846 381.162,279.846 				"/>
				<polygon style="fill:#FFFFFF;" points="385.118,294.251 377.734,294.251 388.019,279.846 395.404,279.846 				"/>
				<polygon style="fill:#FFFFFF;" points="405.856,279.849 405.856,285.15 399.356,294.25 391.977,294.25 402.256,279.849 				"/>
			</g>
			<g style="opacity:0.7;">
				<polygon style="fill:#FFFFFF;" points="281.466,177.52 271.186,191.93 267.586,191.93 267.586,186.62 274.086,177.52 				"/>
				<polygon style="fill:#FFFFFF;" points="285.426,191.926 278.041,191.926 288.327,177.521 295.712,177.521 				"/>
				<polygon style="fill:#FFFFFF;" points="299.668,191.926 292.283,191.926 302.569,177.521 309.953,177.521 				"/>
				<polygon style="fill:#FFFFFF;" points="313.909,191.926 306.525,191.926 316.811,177.521 324.195,177.521 				"/>
				<polygon style="fill:#FFFFFF;" points="328.151,191.926 320.767,191.926 331.052,177.521 338.437,177.521 				"/>
				<polygon style="fill:#FFFFFF;" points="342.393,191.926 335.008,191.926 345.294,177.521 352.679,177.521 				"/>
				<polygon style="fill:#FFFFFF;" points="356.635,191.926 349.25,191.926 359.536,177.521 366.921,177.521 				"/>
				<polygon style="fill:#FFFFFF;" points="370.876,191.926 363.492,191.926 373.778,177.521 381.162,177.521 				"/>
				<polygon style="fill:#FFFFFF;" points="385.118,191.926 377.734,191.926 388.019,177.521 395.404,177.521 				"/>
				<polygon style="fill:#FFFFFF;" points="405.856,177.52 405.856,182.829 399.356,191.93 391.977,191.93 402.256,177.52 				"/>
			</g>
		</g>
	</g>
</g>
<g id="Hole">
	<ellipse style="fill:#263238;" cx="355.754" cy="417.173" rx="58.576" ry="4.948"/>
</g>
<g id="Trafic_cone">
	<g>
		<polygon style="fill:#407BFF;" points="281.181,410.413 267.34,341.484 262.036,341.484 248.194,410.413 238.021,416.639 
			238.021,418.484 291.021,418.484 291.021,416.639 		"/>
		<rect x="238.021" y="416.639" style="opacity:0.2;fill:#FFFFFF;enable-background:new    ;" width="53" height="2.321"/>
		<polygon style="opacity:0.2;fill:#FFFFFF;enable-background:new    ;" points="267.34,341.484 262.036,341.484 248.027,410.21 
			281.015,410.21 		"/>
		<polygon style="opacity:0.6;fill:#FFFFFF;enable-background:new    ;" points="276.576,387.905 273.428,372.081 255.799,372.081 
			252.574,387.905 		"/>
	</g>
</g>
<g id="Speech_bubble">
	<g>
		<g>
			<path style="fill:#407BFF;" d="M166.443,129.238h-42.737c-4.886,0-8.846,3.96-8.846,8.846v14.996
				c0,4.885,3.961,8.846,8.846,8.846h28.4l12.981,13.898l-7.031-13.898h8.387c4.885,0,8.846-3.96,8.846-8.846v-14.996
				C175.289,133.198,171.329,129.238,166.443,129.238z"/>
			<path style="opacity:0.7;fill:#FFFFFF;" d="M166.443,129.238h-42.737c-4.886,0-8.846,3.96-8.846,8.846v14.996
				c0,4.885,3.961,8.846,8.846,8.846h28.4l12.981,13.898l-7.031-13.898h8.387c4.885,0,8.846-3.96,8.846-8.846v-14.996
				C175.289,133.198,171.329,129.238,166.443,129.238z"/>
		</g>
		<g>
			<path style="fill:#407BFF;" d="M125.797,144.759c0-2.793,2.153-4.878,5.083-4.878c2.902,0,5.055,2.071,5.055,4.878
				c0,2.807-2.153,4.878-5.055,4.878C127.95,149.637,125.797,147.553,125.797,144.759z M134.572,144.759
				c0-2.112-1.581-3.665-3.692-3.665c-2.14,0-3.72,1.553-3.72,3.665c0,2.112,1.581,3.666,3.72,3.666
				C132.992,148.425,134.572,146.871,134.572,144.759z"/>
			<path style="fill:#407BFF;" d="M137.16,145.917c0-2.153,1.594-3.679,3.761-3.679c2.167,0,3.747,1.526,3.747,3.679
				c0,2.153-1.581,3.692-3.747,3.692C138.754,149.61,137.16,148.07,137.16,145.917z M143.346,145.917
				c0-1.54-1.035-2.535-2.425-2.535c-1.39,0-2.439,0.995-2.439,2.535c0,1.54,1.049,2.548,2.439,2.548
				C142.311,148.465,143.346,147.457,143.346,145.917z"/>
			<path style="fill:#407BFF;" d="M153.96,145.917c0,2.221-1.54,3.692-3.652,3.692c-1.022,0-1.921-0.395-2.521-1.171v3.733h-1.308
				v-9.865h1.254v1.145c0.586-0.804,1.512-1.213,2.575-1.213C152.42,142.238,153.96,143.71,153.96,145.917z M152.638,145.917
				c0-1.526-1.049-2.535-2.439-2.535c-1.376,0-2.425,1.008-2.425,2.535c0,1.54,1.049,2.548,2.425,2.548
				C151.588,148.465,152.638,147.457,152.638,145.917z"/>
			<path style="fill:#407BFF;" d="M154.857,148.765l0.545-1.036c0.613,0.436,1.594,0.749,2.535,0.749
				c1.212,0,1.717-0.368,1.717-0.981c0-1.622-4.565-0.218-4.565-3.093c0-1.294,1.158-2.167,3.011-2.167
				c0.94,0,2.003,0.245,2.63,0.654l-0.559,1.036c-0.654-0.423-1.376-0.573-2.085-0.573c-1.145,0-1.704,0.423-1.704,0.995
				c0,1.703,4.579,0.313,4.579,3.12c0,1.308-1.199,2.139-3.121,2.139C156.642,149.61,155.457,149.242,154.857,148.765z"/>
			<path style="fill:#407BFF;" d="M162.296,148.738c0-0.49,0.381-0.872,0.899-0.872c0.504,0,0.872,0.382,0.872,0.872
				c0,0.477-0.368,0.872-0.872,0.872C162.678,149.61,162.296,149.215,162.296,148.738z M162.419,139.99h1.54l-0.259,6.527h-1.036
				L162.419,139.99z"/>
		</g>
	</g>
</g>
<g id="Character">
	<g id="_x3C_Group_x3E__2_">
		<g>
			<polygon style="fill:#FFB573;" points="107.22,411.48 113.636,415.175 122.727,400.615 116.302,396.915 			"/>
			<polygon style="opacity:0.2;enable-background:new    ;" points="116.297,396.923 122.722,400.623 118.031,408.128 
				111.606,404.429 			"/>
		</g>
		<g>
			<path style="fill:#263238;" d="M115.52,410.53h-8.996c-0.303,0.001-0.565,0.213-0.631,0.509l-1.46,6.594
				c-0.125,0.59,0.252,1.17,0.843,1.295c0.079,0.017,0.16,0.025,0.24,0.024c2.911-0.047,5.03-0.226,8.685-0.226
				c2.251,0,9.043,0.236,12.152,0.236c3.109,0,3.514-3.071,2.242-3.353c-5.709-1.243-10.004-2.967-11.832-4.606
				C116.425,410.69,115.98,410.521,115.52,410.53z"/>
			<path style="fill:#407BFF;" d="M116.029,411.556c-0.07-0.019-0.123-0.078-0.132-0.151c-0.012-0.069,0.023-0.138,0.085-0.17
				c0.264-0.169,2.656-1.639,3.476-1.215c0.188,0.089,0.307,0.281,0.301,0.49c0.049,0.356-0.09,0.713-0.367,0.942
				c-0.417,0.284-0.919,0.417-1.422,0.377C117.315,411.811,116.664,411.719,116.029,411.556z M116.538,411.312
				c0.864,0.292,1.807,0.245,2.638-0.132c0.177-0.159,0.265-0.395,0.235-0.631c-0.009-0.141-0.066-0.207-0.113-0.207
				c-0.069-0.037-0.148-0.054-0.226-0.047C118.17,410.468,117.31,410.814,116.538,411.312z"/>
			<path style="fill:#407BFF;" d="M115.982,411.594c-0.054-0.035-0.086-0.096-0.085-0.16c0.009-0.103,0.188-2.233,1.046-2.929
				c0.204-0.179,0.475-0.262,0.744-0.226c0.275-0.001,0.511,0.193,0.565,0.462c0.151,0.782-1.328,2.412-2.091,2.826h-0.085
				C116.049,411.585,116.016,411.595,115.982,411.594z M117.169,408.712c-0.521,0.665-0.827,1.474-0.876,2.317
				c0.763-0.575,1.705-1.809,1.611-2.289c-0.009-0.047-0.028-0.179-0.254-0.179h-0.085
				C117.419,408.562,117.278,408.615,117.169,408.712z"/>
		</g>
		<g>
			<polygon style="fill:#FFB573;" points="210.791,413.2 218.424,412.316 216.217,395.919 208.584,396.804 			"/>
			<polygon style="opacity:0.2;enable-background:new    ;" points="208.584,396.804 216.217,395.919 217.349,404.378 
				209.716,405.262 			"/>
		</g>
		<g>
			<path style="fill:#263238;" d="M218.585,410.53h-8.996c-0.303,0.001-0.565,0.213-0.631,0.509l-1.46,6.594
				c-0.125,0.59,0.252,1.17,0.843,1.295c0.079,0.017,0.16,0.025,0.241,0.024c2.911-0.047,5.03-0.226,8.685-0.226
				c2.251,0,9.043,0.236,12.152,0.236s3.514-3.071,2.242-3.353c-5.709-1.243-10.004-2.967-11.832-4.606
				C219.49,410.69,219.045,410.521,218.585,410.53z"/>
			<path style="fill:#407BFF;" d="M219.094,411.556c-0.07-0.019-0.123-0.078-0.132-0.151c-0.012-0.069,0.023-0.138,0.085-0.17
				c0.264-0.169,2.656-1.639,3.476-1.215c0.188,0.089,0.307,0.281,0.301,0.49c0.049,0.356-0.09,0.713-0.367,0.942
				c-0.417,0.284-0.919,0.417-1.422,0.377C220.38,411.811,219.729,411.719,219.094,411.556z M219.603,411.312
				c0.864,0.292,1.807,0.245,2.638-0.132c0.177-0.159,0.265-0.395,0.235-0.631c-0.009-0.141-0.066-0.207-0.113-0.207
				c-0.069-0.037-0.148-0.054-0.226-0.047C221.235,410.468,220.375,410.814,219.603,411.312z"/>
			<path style="fill:#407BFF;" d="M219.047,411.594c-0.054-0.035-0.086-0.096-0.085-0.16c0.009-0.103,0.188-2.233,1.046-2.929
				c0.204-0.179,0.475-0.262,0.744-0.226c0.275-0.001,0.511,0.193,0.565,0.462c0.151,0.782-1.328,2.412-2.091,2.826h-0.085
				C219.113,411.585,219.08,411.595,219.047,411.594z M220.234,408.712c-0.521,0.665-0.827,1.474-0.876,2.317
				c0.763-0.575,1.705-1.809,1.611-2.289c-0.009-0.047-0.028-0.179-0.254-0.179h-0.085
				C220.484,408.562,220.343,408.615,220.234,408.712z"/>
		</g>
		<path style="fill:#263238;" d="M218.322,400.979l-12.82-3.06c0,0-9.29-67.28-31.14-97.77c-2.85-3.98-5.91-7.33-9.19-9.82
			c-1.36,16.9-2.96,34.88-4.35,44.45c-3.42,23.55-36.55,68.92-36.55,68.92l-11.6-4.87c0,0,26.63-49.3,27.91-72.45
			c1.4-25.13,2.01-69.21,2.06-74.37h39.31C185.682,272.419,213.781,319.079,218.322,400.979z"/>
		<path style="opacity:0.3;fill:#FFFFFF;" d="M218.322,400.979l-12.82-3.06c0,0-9.29-67.28-31.14-97.77
			c-2.85-3.98-5.91-7.33-9.19-9.82c-1.36,16.9-2.96,34.88-4.35,44.45c-3.42,23.55-36.55,68.92-36.55,68.92l-11.6-4.87
			c0,0,26.63-49.3,27.91-72.45c1.4-25.13,2.01-69.21,2.06-74.37h39.31C185.682,272.419,213.781,319.079,218.322,400.979z"/>
		<g>
			<path style="fill:#FFB573;" d="M205.636,208.641c0.007,3.014-0.077,6.027-0.118,9.04c-0.066,3.013-0.142,6.025-0.253,9.037
				c-0.197,6.025-0.473,12.048-0.786,18.07l-0.085-0.99c0.428,2.693,0.813,5.395,1.204,8.095c0.397,2.699,0.741,5.409,1.102,8.115
				c0.339,2.71,0.671,5.422,0.967,8.141c0.271,2.724,0.575,5.441,0.782,8.177l-5.163,0.993c-0.823-2.617-1.548-5.253-2.307-7.883
				c-0.733-2.635-1.432-5.276-2.122-7.919c-0.669-2.647-1.355-5.291-1.988-7.945c-0.639-2.653-1.284-5.304-1.885-7.964l-0.075-0.33
				l-0.011-0.66c-0.099-6.03-0.162-12.059-0.144-18.087c-0.005-3.014,0.027-6.027,0.067-9.041c0.066-3.013,0.088-6.026,0.203-9.038
				L205.636,208.641z"/>
		</g>
		<path style="fill:#407BFF;" d="M204.87,205.5c3.225,2.01-0.534,23.097,0.246,38.933c0.091,1.846,0.75,4.712,0.75,4.712
			l-10.871,1.222c0,0-1.347-5.145-1.531-7.683c-0.535-7.385-0.006-28.251-0.006-28.251L204.87,205.5z"/>
		<path style="opacity:0.7;fill:#FFFFFF;" d="M205.12,244.43c0.09,1.85,0.75,4.72,0.75,4.72l-10.88,1.22c0,0-1.34-5.15-1.53-7.69
			c-0.14-1.9-0.21-4.7-0.23-7.8c-0.03-4.68,0.03-10.06,0.1-14.12c-0.01-0.01,0-0.01,0-0.01c0.06-3.71,0.13-6.32,0.13-6.32
			l11.41-8.93C208.09,207.51,204.34,228.6,205.12,244.43z"/>
		<g>
			<path style="fill:#FFB573;" d="M208.288,274.888l2.073,10.16l-9.058,0.37c0,0-2.447-6.898,2.123-10.844L208.288,274.888z"/>
			<polygon style="fill:#FFB573;" points="208.269,292.126 201.452,290.786 201.303,285.418 210.361,285.048 			"/>
		</g>
		<polygon style="fill:#407BFF;" points="194.051,248.554 205.866,246.675 206.199,249.939 194.842,251.126 		"/>
		<polygon style="opacity:0.6;fill:#FFFFFF;" points="194.051,248.554 205.866,246.675 206.199,249.939 194.842,251.126 		"/>
		<path style="opacity:0.1;enable-background:new    ;" d="M193.23,234.88c-0.03-4.68,0.03-10.06,0.1-14.12
			c-0.01-0.01,0-0.01,0-0.01c1.21-2.41,2.41-4.32,3.39-5.16C196.72,215.59,198.85,225.52,193.23,234.88z"/>
		<g>
			<polygon style="fill:#263238;" points="219.982,403.233 203.513,400.783 204.017,396.223 221.148,398.472 			"/>
		</g>
		<g>
			<polygon style="fill:#263238;" points="125.211,406.561 110.364,400.661 112.128,396.223 127.649,402.057 			"/>
		</g>
		<path style="opacity:0.3;enable-background:new    ;" d="M174.361,300.149c-2.85-3.98-5.91-7.33-9.19-9.82l1.09-13.98
			C166.261,276.349,173.072,287.509,174.361,300.149z"/>
		<g>
			<path style="fill:#407BFF;" d="M204.87,205.5c-14.82,24.59-21.4,54.72-21.4,54.72l-7.24,12.43l-5.04-14.04
				c-0.4-0.06-0.81-0.12-1.23-0.18c-0.59-0.09-1.19-0.18-1.8-0.27c-0.6-0.09-1.22-0.18-1.84-0.28c-1.24-0.19-2.51-0.39-3.78-0.6
				c-0.63-0.1-1.27-0.21-1.91-0.32c-0.64-0.1-1.27-0.21-1.91-0.33c-0.63-0.11-1.26-0.22-1.89-0.34c-0.63-0.11-1.25-0.23-1.87-0.35
				c-1.71-0.33-3.38-0.67-4.95-1.02c-0.29-0.07-0.56-0.13-0.84-0.19c-1.16-0.27-2.27-0.54-3.3-0.82c-1.02-0.28-1.96-0.56-2.81-0.84
				c-0.21-0.07-0.42-0.14-0.62-0.21c1.66-11.47,4.25-21.25,7.12-29.39c0.5-1.43,1.01-2.8,1.53-4.13c2.26-5.8,4.62-10.64,6.8-14.55
				c0.05-0.1,0.11-0.19,0.16-0.29c4.6-8.24,13.92-11.83,19.52-10.41c4.25,1.09,10.97,3.64,15.58,5.52
				C199.03,202.02,204.87,205.5,204.87,205.5z"/>
			<path style="opacity:0.7;fill:#FFFFFF;" d="M204.87,205.5c-14.82,24.59-21.4,54.72-21.4,54.72l-7.24,12.43l-5.04-14.04
				c-0.4-0.06-0.81-0.12-1.23-0.18c-0.59-0.09-1.19-0.18-1.8-0.27c-0.6-0.09-1.22-0.18-1.84-0.28c-1.24-0.19-2.51-0.39-3.78-0.6
				c-0.63-0.1-1.27-0.21-1.91-0.32c-0.64-0.1-1.27-0.21-1.91-0.33c-0.63-0.11-1.26-0.22-1.89-0.34c-0.63-0.11-1.25-0.23-1.87-0.35
				c-1.71-0.33-3.38-0.67-4.95-1.02c-0.29-0.07-0.56-0.13-0.84-0.19c-1.16-0.27-2.27-0.54-3.3-0.82c-1.02-0.27-1.96-0.55-2.81-0.84
				c-0.21-0.07-0.42-0.14-0.62-0.21c1.66-11.47,4.25-21.25,7.12-29.39c0.5-1.43,1.01-2.8,1.53-4.13c2.26-5.8,4.62-10.64,6.8-14.55
				c0.05-0.1,0.11-0.19,0.16-0.29c4.6-8.24,13.92-11.83,19.52-10.41c4.25,1.09,10.97,3.64,15.58,5.52
				C199.03,202.02,204.87,205.5,204.87,205.5z"/>
			<path style="opacity:0.1;enable-background:new    ;" d="M181.09,222.68c0,0-0.42,2.24-0.93,5.4c-0.51,3.17-2.26,8.57-3.05,10.2
				c-0.8,1.63-4.09,8.13-3.46,11.03c0.63,2.9-2.46,9.3-2.46,9.3c-0.4-0.06-0.81-0.12-1.23-0.18c0.76-3.55,3.31-15.04,4.69-16.37
				c1.63-1.58,4.17-8.57,3.64-11.2C177.77,228.23,181.09,222.68,181.09,222.68z"/>
		</g>
		<g>
			<path style="fill:#FFB573;" d="M170.264,274.888l2.073,10.16l-9.058,0.37c0,0-2.447-6.898,2.123-10.844L170.264,274.888z"/>
			<polygon style="fill:#FFB573;" points="170.245,292.126 163.428,290.786 163.279,285.418 172.337,285.048 			"/>
		</g>
		<g>
			<path style="fill:#FFB573;" d="M175.986,194.586c1.04,2.83,9,12.96,9,12.96l7.05-7.95c0,0-0.76-0.61-1.28-1.62
				c-0.53-1.02-0.8-2.47,0.28-4.13c0.32-0.49,0.82-0.87,1.28-1.27c0.08-0.05,0.15-0.12,0.22-0.18l-3.52-13.13
				C186.816,184.336,181.166,193.756,175.986,194.586z"/>
			<path style="opacity:0.2;enable-background:new    ;" d="M190.756,197.976c-0.53-1.02-0.8-2.47,0.28-4.13
				c0.32-0.49,0.82-0.87,1.28-1.27l-5.23-9.16C183.796,190.706,188.016,195.786,190.756,197.976z"/>
		</g>
		<g>
			<g>
				<path style="fill:#FFB573;" d="M203.66,168.21c0,0,2.844,9.923-2.026,14.508c-4.87,4.586-7.3-14.255-7.3-14.255L203.66,168.21z"
					/>
				<path style="opacity:0.4;enable-background:new    ;" d="M203.66,168.21c0,0,2.844,9.923-2.026,14.508
					c-4.87,4.586-7.3-14.255-7.3-14.255L203.66,168.21z"/>
			</g>
			<path style="fill:#FFB573;" d="M187.076,192.773c3.089,3.41,7.467,3.843,11.007,2.199c2.277-1.053,4.204-2.974,5.226-5.508
				c0.138-0.331,0.255-0.679,0.361-1.034c1.846-6.526,0.868-21.908-5.771-20.664c-5.438,1.019-10.988-0.141-13.312,4.889
				c-0.671,1.426-0.982,2.995-0.93,4.574C183.785,184.564,183.515,188.882,187.076,192.773z"/>
			<path style="fill:#ED893E;" d="M199.286,180.215c0.636,1.854,1.525,3.611,2.642,5.222c-0.854,0.559-1.912,0.712-2.89,0.418
				L199.286,180.215z"/>
			<path style="fill:#263238;" d="M196.868,174.982c-0.128-0.028-0.261,0.014-0.349,0.111c-0.574,0.682-1.437,1.053-2.327,1.002
				c-0.19-0.028-0.368,0.103-0.396,0.293c-0.028,0.191,0.103,0.368,0.294,0.396c0.001,0,0.001,0,0.002,0
				c1.124,0.094,2.223-0.362,2.95-1.224c0.132-0.14,0.124-0.361-0.016-0.493c-0.002-0.002-0.004-0.004-0.006-0.006
				C196.972,175.027,196.921,175.001,196.868,174.982z"/>
			<path style="fill:#263238;" d="M201.289,174.568c-0.068-0.019-0.141-0.015-0.207,0.01c-0.164,0.101-0.214,0.316-0.112,0.48
				c0.001,0.002,0.003,0.004,0.004,0.006c0.589,0.966,1.612,1.584,2.741,1.658c0.192,0.001,0.349-0.154,0.351-0.346v-0.001
				c-0.004-0.191-0.156-0.346-0.347-0.351l0,0c-0.889-0.084-1.687-0.584-2.15-1.348
				C201.496,174.601,201.394,174.562,201.289,174.568z"/>
			<g>
				<path style="fill:#FFB573;" d="M185.041,182.325c-0.702,0.203-0.745,3.332-0.018,6.177l-1.247,0.351
					c-1.074-1.514-2.247-3.662-2.999-6.509c-1.572-5.946-1.789-9.792-1.221-12.768l9.851-1.271l0.416,3.23
					c-1.056,0.572-1.688,1.773-1.19,3.043c1.062,2.712-0.452,6.941-2.527,8.637C186.106,183.217,186.033,182.039,185.041,182.325z"
					/>
				<path style="opacity:0.4;enable-background:new    ;" d="M185.041,182.325c-0.702,0.203-0.745,3.332-0.018,6.177l-1.247,0.351
					c-1.074-1.514-2.247-3.662-2.999-6.509c-1.572-5.946-1.789-9.792-1.221-12.768l9.851-1.271l0.416,3.23
					c-1.056,0.572-1.688,1.773-1.19,3.043c1.062,2.712-0.452,6.941-2.527,8.637C186.106,183.217,186.033,182.039,185.041,182.325z"
					/>
			</g>
			<path style="fill:#FFB573;" d="M180.208,183.107c0.745,1.691,2.131,3.018,3.853,3.689c2.286,0.873,3.654-1.12,3.213-3.398
				c-0.411-2.021-2.082-4.976-4.474-4.85C180.408,178.675,179.32,181.02,180.208,183.107z"/>
			<path style="fill:#263238;" d="M181.507,166.629c0,0-1.19-2.062,1.41-4.506c2.6-2.444,13.501-3.457,16.766-1.43
				c3.265,2.027,5.925,0.525,5.758-0.798c0,0,1.091,1.2,0.179,2.826c0,0,2.093-0.109,3.112,3.028c0,0-1.303-0.25-2.158,0.607
				c0,0,1.299,1.21,0.857,3.046c0,0-1.155-1.182-2.386-1.178c0,0,0.574,1.551,1.214,2.124c0,0-4.322,0.484-6.562-1.157
				c0,0,0.729,1.27,1.724,1.902c0,0-7.045,1.297-9.338-1.482c0,0-1.225,1.578-0.698,3.416c0,0-2.164,0.061-3.164-1.301
				c0,0-2.737,2.352-5.942,2.494c0,0,0.315-0.294,0.978-1.371c0,0-3.593,2.107-5.953,0.511c0,0,0.482-0.752,0.598-1.675
				l-0.938,0.469C176.965,172.154,176.899,166.83,181.507,166.629z"/>
			<g>
				<path style="fill:#ED893E;" d="M194.337,182.471c-0.206,0.058-0.43,0.104-0.676,0.136c-0.096,0.012-0.184-0.056-0.196-0.152
					c-0.012-0.096,0.058-0.176,0.152-0.196c2.245-0.282,2.55-1.874,2.562-1.942c0.016-0.095,0.105-0.159,0.202-0.144
					c0.095,0.016,0.159,0.106,0.144,0.201C196.521,180.392,196.245,181.934,194.337,182.471z"/>
			</g>
			<g>
				<path style="fill:#ED893E;" d="M203.025,182.411c-0.022,0.006-0.045,0.008-0.068,0.005c-1.26-0.153-1.829-1.838-1.853-1.91
					c-0.031-0.092,0.019-0.191,0.111-0.221c0.085-0.03,0.19,0.02,0.221,0.111c0.005,0.015,0.523,1.546,1.563,1.672
					c0.096,0.011,0.164,0.099,0.153,0.195C203.142,182.335,203.091,182.392,203.025,182.411z"/>
			</g>
			<path style="fill:#263238;" d="M194.695,179.734c-0.066,0.59,0.267,1.091,0.664,1.107c0.396,0.016,0.724-0.46,0.752-1.054
				c0.028-0.594-0.277-1.092-0.664-1.107C195.061,178.665,194.725,179.13,194.695,179.734z"/>
			<path style="fill:#263238;" d="M201.441,180.009c-0.066,0.59,0.277,1.092,0.664,1.107c0.387,0.015,0.724-0.46,0.752-1.054
				c0.028-0.594-0.277-1.092-0.664-1.107C201.807,178.941,201.466,179.443,201.441,180.009z"/>
			<path style="fill:#FFB573;" d="M194.072,179.76c0,0,1.732,0.042,2.455-0.494c0.723-0.536-0.603-1.063-1.259-1.063
				S193.631,179.24,194.072,179.76z"/>
			<path style="fill:#FFB573;" d="M201.108,179.64c0,0,1.628,0.591,2.484,0.313s-0.233-1.2-0.855-1.409
				S200.856,179.007,201.108,179.64z"/>
			<g>
				<path style="fill:#263238;" d="M199.58,190.53c0,0-0.88,0.36-2.01,0.73c-2.03,0.67-4.89,1.37-5.06,0.15
					c-0.05-0.36,0.04-0.67,0.25-0.94c0.86-1.18,3.73-1.61,5.63-1.81c0,0,0.1,0.7,0.27,0.94
					C199.17,190.36,199.58,190.53,199.58,190.53z"/>
				<path style="fill:#A02724;" d="M197.57,191.26c-2.03,0.67-4.89,1.37-5.06,0.15c-0.05-0.36,0.04-0.67,0.25-0.94
					C194.46,190.35,196.77,190.37,197.57,191.26z"/>
			</g>
			<path style="fill:#FFFFFF;" d="M190.342,178.203c0,0,1.038,2.638,0,2.638C189.304,180.841,190.342,178.203,190.342,178.203z"/>
			<path style="fill:#FFFFFF;" d="M188.639,180.478c0,0,1.038,2.638,0,2.638C187.6,183.116,188.639,180.478,188.639,180.478z"/>
			<path style="fill:#FFFFFF;" d="M202.201,171.951c0,0,1.594,2.345,0.581,2.573C201.769,174.753,202.201,171.951,202.201,171.951z"
				/>
			<path style="fill:#FFFFFF;" d="M203.245,184.684c0,0,0.913,2.684-0.124,2.635C202.083,187.27,203.245,184.684,203.245,184.684z"
				/>
		</g>
		<g>
			<g>
				<path style="fill:#407BFF;" d="M174.651,192.609c0,0,5.038,15.033,8.071,20.703l0.659-0.705c0,0-5.538-15.778-6.395-19.998
					H174.651z"/>
				<path style="fill:#407BFF;" d="M190.38,199.895c0,0-0.038,6.659-4.025,13.418v1.121c0,0,3.961-3.363,5.18-13.352L190.38,199.895
					z"/>
				<path style="fill:#407BFF;" d="M182.207,212.973l0.99-1.754c1.805,2.299,3.338,1.063,3.338,1.063l0.656,1.402l-1.744,4.804
					h-1.797L182.207,212.973z"/>
				<path style="fill:#407BFF;" d="M185.348,216.115c0,0-0.677,16.22,0,25.615c0.434,6.017,0.89,16.813,0.593,19.681l-2.71,2.077
					l-2.136-3.272c0,0,1.681-4.442,0.89-15.717s2.102-27.989,2.102-27.989L185.348,216.115z"/>
			</g>
			<polygon style="fill:#407BFF;" points="171.285,193.513 176.676,190.649 184.048,197.488 184.396,206.373 189.663,199.161 
				192.879,197.523 195.213,201.43 192.266,206.131 190.385,203.699 184.064,209.073 179.402,201.66 176.266,203.357 			"/>
			<polygon style="opacity:0.6;fill:#FFFFFF;" points="171.285,193.513 176.676,190.649 184.048,197.488 184.396,206.373 
				189.663,199.161 192.879,197.523 195.213,201.43 192.266,206.131 190.385,203.699 184.064,209.073 179.402,201.66 
				176.266,203.357 			"/>
			<polygon style="opacity:0.1;" points="184.064,209.073 189.833,201.676 192.266,206.131 190.385,203.699 			"/>
			<polygon style="opacity:0.1;" points="184.064,209.073 181.429,199.516 176.266,203.357 179.402,201.66 			"/>
		</g>
		<path style="opacity:0.1;enable-background:new    ;" d="M167.84,252.01l-9.2,0.99c0,0-9.84-14.93-9.08-29.53
			c0.5-1.43,1.01-2.8,1.53-4.13c2.26-5.8,4.62-10.64,6.8-14.55c1.37-1.25,2.34-1.83,2.34-1.83l9.51,14.18
			C169.74,217.14,170.35,240.25,167.84,252.01z"/>
		<g>
			<g>
				<path style="fill:#FFB573;" d="M167.612,208.641c0.007,3.014-0.077,6.027-0.118,9.04c-0.066,3.013-0.142,6.025-0.253,9.037
					c-0.197,6.025-0.473,12.048-0.786,18.07l-0.085-0.99c0.428,2.693,0.813,5.395,1.204,8.095c0.397,2.699,0.741,5.409,1.102,8.115
					c0.339,2.71,0.671,5.422,0.967,8.141c0.271,2.724,0.575,5.441,0.782,8.177l-5.163,0.993c-0.823-2.617-1.548-5.253-2.307-7.883
					c-0.733-2.635-1.432-5.276-2.122-7.919c-0.669-2.647-1.355-5.291-1.988-7.945c-0.639-2.653-1.283-5.304-1.885-7.964l-0.075-0.33
					l-0.011-0.66c-0.099-6.03-0.162-12.059-0.144-18.087c-0.005-3.014,0.027-6.027,0.067-9.041c0.066-3.013,0.088-6.026,0.203-9.038
					L167.612,208.641z"/>
			</g>
			<path style="fill:#407BFF;" d="M163.26,200.653c5.143,2.242,6.7,10.566,6.7,10.566s-2.61,31.896-2.479,33.214
				c0.131,1.319,0.362,3.824,0.362,3.824l-11.044,2.11c0,0-0.923-5.934-1.451-18.066c-0.528-12.132-0.04-22.242,2.505-26.709
				S163.26,200.653,163.26,200.653z"/>
			<path style="opacity:0.7;fill:#FFFFFF;" d="M163.26,200.653c5.143,2.242,6.7,10.566,6.7,10.566s-2.61,31.896-2.479,33.214
				c0.131,1.319,0.362,3.824,0.362,3.824l-11.044,2.11c0,0-0.923-5.934-1.451-18.066c-0.528-12.132-0.04-22.242,2.505-26.709
				S163.26,200.653,163.26,200.653z"/>
			<polygon style="fill:#407BFF;" points="155.158,248.521 168.667,246.279 167.842,249.708 156.667,252.011 			"/>
			<polygon style="opacity:0.6;fill:#FFFFFF;" points="155.158,248.521 168.667,246.279 167.842,249.708 156.667,252.011 			"/>
		</g>
		<g>
			<path style="fill:#263238;" d="M228.327,298.23l-2.186,31.759c-0.072,1.039-1.028,1.839-2.151,1.774l-41.084-2.262
				c-1.111-0.065-1.963-0.97-1.891-2.009l2.186-31.759c0.072-1.051,1.041-1.839,2.152-1.774l41.084,2.262
				C227.56,296.286,228.4,297.179,228.327,298.23z"/>
			<path style="enable-background:new    ;" d="M188.067,296.015l-2.186,31.759c-0.072,1.039-1.041,1.839-2.152,1.774l-0.823-0.048
				c-1.111-0.065-1.963-0.97-1.891-2.009l2.186-31.759c0.072-1.051,1.041-1.839,2.152-1.774l0.823,0.048
				C187.286,294.071,188.139,294.965,188.067,296.015z"/>
			<g>
				<path style="fill:#407BFF;" d="M207.007,325.632l18.473-3.315c0,0,9.354,18.017,14.84,22.905l-20.509,7.576
					C219.811,352.797,210.093,341.139,207.007,325.632z"/>
				<path style="opacity:0.7;fill:#FFFFFF;" d="M207.007,325.632l18.473-3.315c0,0,9.354,18.017,14.84,22.905l-20.509,7.576
					C219.811,352.797,210.093,341.139,207.007,325.632z"/>
			</g>
			<g>
				<path style="fill:#407BFF;" d="M206.529,308.305c3.462,2.077,13.747,18.593,13.747,18.593l21.56-11.929
					c0,0-10.978-10.324-14.439-11.609C223.936,302.074,206.529,308.305,206.529,308.305z"/>
				<path style="opacity:0.6;fill:#FFFFFF;" d="M206.233,308.305c3.52,2.077,13.978,18.593,13.978,18.593l21.923-11.929
					c0,0-11.162-10.324-14.682-11.609C223.932,302.074,206.233,308.305,206.233,308.305z"/>
			</g>
			<g>
				<path style="fill:#407BFF;" d="M193.225,302.762c0,0,4.052,9.378,4.952,17.996l28.362-5.001c0,0-4.202-11.098-6.003-12.995
					C218.735,300.864,193.225,302.762,193.225,302.762z"/>
				<path style="opacity:0.7;fill:#FFFFFF;" d="M193.225,302.762c0,0,4.052,9.378,4.952,17.996l28.362-5.001
					c0,0-4.202-11.098-6.003-12.995C218.735,300.864,193.225,302.762,193.225,302.762z"/>
			</g>
			<path style="fill:none;stroke:#263238;stroke-width:1.2206;stroke-miterlimit:10;" d="M196.204,295.466
				c0,0,2.99-9.838,7.627-9.139c4.637,0.699,10.967,4.919,12.153,10.194"/>
			<path style="fill:#263238;" d="M186.754,294.06c1.04,0.061,2.065,1.006,2.246,1.958l2.748,14.396
				c0.155,0.81,0.997,1.508,1.882,1.559l37.023,2.031c0.885,0.051,1.477-0.563,1.323-1.373l-2.757-14.443
				c-0.193-1.011-1.245-1.883-2.35-1.947l-41.071-2.266L186.754,294.06z"/>
			<path style="opacity:0.1;fill:#FFFFFF;" d="M186.754,294.06c1.04,0.061,2.065,1.006,2.246,1.958l2.748,14.396
				c0.155,0.81,0.997,1.508,1.882,1.559l37.023,2.031c0.885,0.051,1.477-0.563,1.323-1.373l-2.757-14.443
				c-0.193-1.011-1.245-1.883-2.35-1.947l-41.071-2.266L186.754,294.06z"/>
			<g>
				<path style="enable-background:new    ;" d="M217.305,319.804l-2.874-0.167c-0.286-0.017-0.579-0.267-0.655-0.558l-2.274-8.782
					l3.91,0.227l2.274,8.782C217.762,319.598,217.592,319.821,217.305,319.804z"/>
				<g>
					<path style="fill:#263238;" d="M216.463,316.91c-0.017,0-0.034,0-0.052-0.002l-2.75-0.16c-0.47-0.027-0.934-0.419-1.057-0.894
						l-0.452-1.745c-0.067-0.259-0.021-0.508,0.125-0.686c0.14-0.17,0.363-0.269,0.604-0.244l2.75,0.16
						c0.47,0.027,0.935,0.419,1.057,0.894l0.452,1.745c0.067,0.258,0.021,0.507-0.125,0.685
						C216.883,316.823,216.689,316.91,216.463,316.91z M216.437,316.453c0.07,0,0.165-0.007,0.225-0.079
						c0.053-0.064,0.066-0.166,0.036-0.281l-0.452-1.745c-0.073-0.284-0.367-0.537-0.641-0.553l-2.75-0.16
						c-0.072-0.001-0.166,0.006-0.224,0.078c-0.053,0.065-0.066,0.167-0.036,0.282l0.452,1.745c0.073,0.284,0.367,0.537,0.641,0.553
						L216.437,316.453z"/>
				</g>
				<g style="opacity:0.5;">
					<path style="fill:#FFFFFF;" d="M216.463,316.91c-0.017,0-0.034,0-0.052-0.002l-2.75-0.16c-0.47-0.027-0.934-0.419-1.057-0.894
						l-0.452-1.745c-0.067-0.259-0.021-0.508,0.125-0.686c0.14-0.17,0.363-0.269,0.604-0.244l2.75,0.16
						c0.47,0.027,0.935,0.419,1.057,0.894l0.452,1.745c0.067,0.258,0.021,0.507-0.125,0.685
						C216.883,316.823,216.689,316.91,216.463,316.91z M216.437,316.453c0.07,0,0.165-0.007,0.225-0.079
						c0.053-0.064,0.066-0.166,0.036-0.281l-0.452-1.745c-0.073-0.284-0.367-0.537-0.641-0.553l-2.75-0.16
						c-0.072-0.001-0.166,0.006-0.224,0.078c-0.053,0.065-0.066,0.167-0.036,0.282l0.452,1.745c0.073,0.284,0.367,0.537,0.641,0.553
						L216.437,316.453z"/>
				</g>
			</g>
		</g>
	</g>
</g>
</svg>
